<?xml version="1.0" standalone="no"?>
<!DOCTYPE svg PUBLIC "-//W3C//DTD SVG 20010904//EN"
 "http://www.w3.org/TR/2001/REC-SVG-20010904/DTD/svg10.dtd">
<svg version="1.0" xmlns="http://www.w3.org/2000/svg"
 width="1920.000000pt" height="927.000000pt" viewBox="0 0 1920.000000 927.000000"
 preserveAspectRatio="xMidYMid meet">

<g transform="translate(0.000000,927.000000) scale(0.100000,-0.100000)"
fill="#000000" stroke="none">
<path d="M225 9055 c-25 -24 -25 -25 -25 -225 0 -270 -20 -250 250 -250 270 0
250 -20 250 250 0 270 20 250 -250 250 -200 0 -201 0 -225 -25z m263 -172
c-21 -2 -55 -2 -75 0 -21 2 -4 4 37 4 41 0 58 -2 38 -4z m0 -50 c-21 -2 -55
-2 -75 0 -21 2 -4 4 37 4 41 0 58 -2 38 -4z m22 -53 c0 -6 -28 -10 -65 -10
-37 0 -65 4 -65 10 0 6 28 10 65 10 37 0 65 -4 65 -10z"/>
<path d="M17325 9055 c-25 -24 -25 -25 -25 -225 0 -270 -20 -250 250 -250 270
0 250 -20 250 250 0 270 20 250 -250 250 -200 0 -201 0 -225 -25z m274 -169
c18 -19 22 -33 19 -72 l-3 -49 -64 -3 c-74 -3 -81 2 -81 66 0 65 13 82 64 82
32 0 48 -6 65 -24z"/>
<path d="M17492 8835 c1 -33 3 -48 5 -32 4 25 8 27 49 27 42 0 44 -1 44 -31 0
-17 4 -28 10 -24 17 11 12 80 -8 98 -20 18 -72 23 -72 7 0 -5 14 -10 31 -10
17 0 28 -4 24 -10 -3 -5 -20 -10 -36 -10 -21 0 -32 6 -39 23 -6 16 -9 7 -8
-38z"/>
<path d="M17520 8794 c0 -22 4 -25 28 -22 19 2 28 9 30 26 3 19 -1 22 -27 22
-27 0 -31 -4 -31 -26z"/>
<path d="M17925 9055 c-25 -24 -25 -25 -25 -225 0 -270 -20 -250 250 -250 270
0 250 -20 250 250 0 270 20 250 -250 250 -200 0 -201 0 -225 -25z m281 -166
c21 -17 40 -87 27 -100 -7 -7 -12 1 -16 27 -8 47 -33 74 -69 74 -39 0 -68 -32
-68 -75 0 -19 -4 -35 -10 -35 -5 0 -10 16 -10 36 0 26 8 43 30 66 26 26 36 30
66 25 20 -3 42 -11 50 -18z m-81 -100 c0 -15 -7 -25 -17 -27 -13 -3 -18 3 -18
21 0 13 3 27 7 31 13 12 28 -1 28 -25z m80 1 c0 -16 -6 -26 -17 -28 -14 -3
-18 3 -18 28 0 25 4 31 18 28 11 -2 17 -12 17 -28z"/>
<path d="M18661 9063 c-88 -31 -161 -136 -161 -233 0 -132 118 -250 250 -250
60 0 130 30 175 75 188 188 -12 497 -264 408z m35 -215 l29 -43 3 43 c5 67 22
49 22 -23 0 -79 -13 -84 -54 -18 -31 48 -41 45 -34 -13 3 -23 0 -34 -9 -34 -9
0 -13 18 -13 65 0 79 14 84 56 23z m164 27 c20 -24 4 -63 -30 -70 -21 -5 -30
-13 -30 -26 0 -10 -7 -19 -15 -19 -12 0 -15 14 -15 65 l0 65 39 0 c22 0 44 -6
51 -15z"/>
<path d="M18800 8845 c0 -27 1 -28 24 -19 24 9 20 44 -4 44 -15 0 -20 -7 -20
-25z"/>
<path d="M1488 8899 c-10 -5 -18 -15 -18 -21 0 -9 3 -9 12 0 7 7 20 12 30 12
33 0 31 -28 -6 -73 -20 -24 -36 -47 -36 -51 0 -3 19 -5 43 -4 36 1 38 2 10 5
-18 2 -33 7 -33 10 0 3 14 21 30 40 35 39 38 68 11 83 -23 12 -22 12 -43 -1z"/>
<path d="M1758 8899 c-10 -5 -18 -15 -18 -21 0 -9 3 -9 12 0 7 7 20 12 30 12
33 0 31 -28 -6 -73 -20 -24 -36 -47 -36 -51 0 -3 19 -5 43 -4 36 1 38 2 10 5
-18 2 -33 7 -33 10 0 3 14 21 30 40 35 39 38 68 11 83 -23 12 -22 12 -43 -1z"/>
<path d="M1883 8902 c-46 -29 -32 -142 18 -142 48 0 69 90 29 130 -22 22 -29
24 -47 12z m47 -31 c14 -28 13 -64 -4 -87 -31 -40 -68 19 -52 82 8 29 41 32
56 5z"/>
<path d="M1999 8890 c-13 -10 -18 -19 -11 -20 6 0 12 5 12 10 0 6 11 10 24 10
40 0 39 -27 -4 -74 -22 -24 -40 -46 -40 -50 0 -3 21 -5 48 -4 36 1 39 2 15 5
-18 2 -33 7 -33 11 1 4 14 23 30 42 34 39 37 52 14 74 -20 21 -27 20 -55 -4z"/>
<path d="M3990 8900 c0 -5 5 -10 11 -10 5 0 7 5 4 10 -3 6 -8 10 -11 10 -2 0
-4 -4 -4 -10z"/>
<path d="M822 8828 l1 -73 6 60 6 60 24 -57 c13 -32 27 -58 31 -58 4 0 16 23
26 50 10 28 21 50 25 50 5 0 10 -24 12 -52 3 -45 4 -42 5 20 2 88 -12 93 -43
14 -11 -29 -22 -52 -26 -52 -3 0 -16 25 -28 55 -13 30 -27 55 -32 55 -5 0 -8
-33 -7 -72z"/>
<path d="M1293 8830 c0 -41 2 -56 4 -33 8 79 59 83 66 5 4 -42 4 -41 3 8 l-1
55 -32 -1 c-25 -2 -33 3 -36 20 -2 11 -4 -13 -4 -54z"/>
<path d="M1590 8885 c-8 -9 -9 -15 -2 -15 6 0 14 6 19 13 5 7 10 -17 14 -58
l5 -70 2 73 c2 55 -1 72 -12 72 -7 0 -19 -7 -26 -15z"/>
<path d="M2128 8854 c-16 -25 -28 -49 -28 -55 0 -5 16 -9 35 -9 26 0 35 -4 36
-17 0 -14 2 -15 6 -3 3 8 11 18 17 22 8 5 7 8 -1 8 -9 0 -13 17 -13 50 0 63
-16 65 -52 4z m38 -40 c-6 -16 -46 -19 -46 -3 0 6 10 25 23 42 l22 32 3 -28
c2 -16 1 -35 -2 -43z"/>
<path d="M2442 8828 c0 -40 3 -58 5 -40 5 42 32 42 56 1 10 -18 20 -29 24 -26
3 4 -1 17 -10 31 -14 21 -14 26 -2 36 35 29 10 70 -42 70 l-33 0 2 -72z m68
47 c17 -20 -3 -45 -36 -45 -20 0 -24 5 -24 30 0 25 4 30 24 30 13 0 29 -7 36
-15z"/>
<path d="M3193 8830 c0 -63 1 -68 7 -32 6 42 24 65 45 59 6 -2 11 -25 13 -50
4 -55 22 -64 22 -11 0 55 -16 77 -50 70 -24 -4 -29 -2 -33 17 -2 12 -4 -12 -4
-53z"/>
<path d="M3371 8828 c1 -48 4 -63 8 -43 5 25 12 31 41 35 32 5 35 8 35 40 0
34 -1 35 -42 38 l-43 3 1 -73z m74 32 c0 -21 -5 -26 -32 -28 -31 -3 -33 -1
-33 28 0 29 2 31 33 28 27 -2 32 -7 32 -28z"/>
<path d="M4153 8830 c0 -41 2 -58 4 -37 2 20 2 54 0 75 -2 20 -4 3 -4 -38z"/>
<path d="M4262 8828 c0 -40 3 -58 5 -40 4 29 7 32 38 32 29 0 36 4 41 25 8 34
-11 55 -52 55 l-34 0 2 -72z m67 48 c18 -22 2 -46 -30 -46 -26 0 -29 4 -29 30
0 25 4 30 24 30 13 0 29 -6 35 -14z"/>
<path d="M3613 8875 c-6 -7 -8 -16 -3 -21 5 -5 10 -27 12 -49 2 -31 7 -40 23
-43 18 -2 18 -2 3 8 -12 7 -18 23 -18 45 0 22 6 38 18 44 15 9 15 10 0 11 -9
0 -18 4 -20 9 -1 5 -8 3 -15 -4z"/>
<path d="M3923 8875 c-6 -7 -8 -16 -3 -21 5 -5 10 -27 12 -48 2 -24 9 -41 18
-44 12 -4 13 -2 3 9 -15 15 -18 86 -4 91 5 2 4 8 -3 14 -8 8 -15 7 -23 -1z"/>
<path d="M4578 8879 c-2 -6 -1 -34 2 -62 4 -42 9 -52 25 -55 16 -3 18 -1 8 9
-16 16 -17 89 -2 89 6 0 4 7 -5 15 -17 18 -23 19 -28 4z"/>
<path d="M1007 8864 c-14 -14 -7 -26 8 -14 17 14 48 5 43 -13 -3 -6 -18 -14
-34 -17 -23 -4 -29 -10 -29 -30 0 -22 4 -25 38 -26 l38 -1 -3 51 c-3 46 -5 51
-28 54 -14 2 -29 0 -33 -4z m53 -68 c0 -18 -39 -31 -52 -18 -15 15 0 32 28 32
14 0 24 -6 24 -14z"/>
<path d="M1112 8810 c1 -50 2 -51 5 -13 3 28 11 47 24 57 20 14 20 14 -5 12
-25 -1 -26 -3 -24 -56z"/>
<path d="M1192 8858 c-17 -17 -15 -73 2 -88 18 -14 58 -10 64 8 3 11 0 11 -16
1 -17 -10 -23 -10 -36 0 -37 31 -7 93 33 71 12 -6 21 -7 21 -1 0 20 -50 27
-68 9z"/>
<path d="M2572 8858 c-17 -17 -15 -73 2 -88 18 -14 58 -10 64 8 3 11 0 11 -16
1 -17 -10 -23 -10 -36 0 -26 22 -19 31 24 31 44 0 52 16 24 44 -18 19 -45 21
-62 4z m42 -4 c28 -11 18 -34 -14 -34 -32 0 -37 9 -18 28 14 14 12 14 32 6z"/>
<path d="M2681 8851 c-12 -21 -1 -34 37 -45 12 -4 22 -12 22 -17 0 -17 -32
-23 -54 -9 -19 12 -20 12 -7 -4 20 -24 65 -17 69 10 2 16 -4 24 -27 32 -17 6
-31 15 -31 21 0 18 19 22 42 10 21 -11 22 -11 9 4 -18 23 -48 21 -60 -2z"/>
<path d="M2792 8858 c-17 -17 -15 -73 2 -88 18 -14 58 -10 64 8 3 11 0 11 -16
1 -17 -10 -23 -10 -36 0 -26 22 -19 31 24 31 44 0 52 16 24 44 -18 19 -45 21
-62 4z m42 -4 c28 -11 18 -34 -14 -34 -32 0 -37 9 -18 28 14 14 12 14 32 6z"/>
<path d="M2913 8863 c-7 -2 -13 -9 -13 -14 0 -6 9 -5 21 2 14 7 24 8 31 1 14
-14 1 -32 -21 -32 -10 0 -24 -7 -31 -15 -19 -23 5 -45 46 -43 30 1 34 4 34 29
0 63 -25 90 -67 72z m45 -70 c-2 -10 -13 -19 -26 -21 -17 -3 -22 2 -22 17 0
16 6 21 26 21 19 0 25 -5 22 -17z"/>
<path d="M3012 8810 c1 -46 2 -49 5 -15 3 26 12 46 26 57 l21 16 -27 -1 c-26
-2 -27 -4 -25 -57z"/>
<path d="M3092 8858 c-17 -17 -15 -73 2 -88 18 -14 58 -10 64 8 3 11 0 11 -16
1 -17 -10 -23 -10 -36 0 -37 31 -7 93 33 71 12 -6 21 -7 21 -1 0 20 -50 27
-68 9z"/>
<path d="M3508 8859 c-21 -12 -24 -69 -6 -87 7 -7 21 -12 33 -12 30 0 45 19
45 57 0 44 -34 64 -72 42z m50 -11 c30 -30 -2 -93 -36 -71 -21 13 -27 50 -12
69 15 17 32 18 48 2z"/>
<path d="M3698 8859 c-22 -12 -24 -71 -4 -89 18 -14 58 -10 64 8 3 11 0 11
-16 1 -17 -10 -23 -10 -36 0 -26 22 -19 31 24 31 44 0 52 16 24 44 -18 18 -32
20 -56 5z m36 -5 c28 -11 18 -34 -14 -34 -32 0 -37 9 -18 28 14 14 12 14 32 6z"/>
<path d="M3802 8810 c1 -48 2 -50 5 -13 8 79 59 83 66 5 4 -42 4 -41 3 8 l-1
55 -37 0 -38 1 2 -56z"/>
<path d="M3993 8815 c0 -33 2 -45 4 -27 2 18 2 45 0 60 -2 15 -4 0 -4 -33z"/>
<path d="M4053 8863 c-7 -2 -13 -9 -13 -14 0 -6 9 -5 21 2 14 7 24 8 31 1 14
-14 1 -32 -21 -32 -10 0 -24 -7 -31 -15 -19 -23 5 -45 46 -43 30 1 34 4 34 29
0 63 -25 90 -67 72z m45 -70 c-2 -10 -13 -19 -26 -21 -17 -3 -22 2 -22 17 0
16 6 21 26 21 19 0 25 -5 22 -17z"/>
<path d="M4389 8853 c-13 -15 -12 -15 10 -4 19 11 26 10 39 -3 17 -16 12 -21
-33 -28 -14 -2 -20 -11 -20 -28 0 -22 4 -25 38 -25 37 -1 37 0 37 40 0 61 -39
87 -71 48z m59 -55 c-7 -21 -36 -34 -49 -21 -6 6 -8 16 -5 22 10 15 59 14 54
-1z"/>
<path d="M4491 8810 l2 -55 6 43 c4 24 16 48 27 56 18 13 17 14 -9 13 -26 -2
-27 -4 -26 -57z"/>
<path d="M4652 8810 c1 -49 2 -50 5 -13 2 23 11 47 19 53 22 19 42 -4 47 -53
l4 -42 1 46 c2 53 -10 68 -50 66 -27 -2 -28 -4 -26 -57z"/>
<path d="M4776 8854 c-29 -29 -13 -94 24 -94 25 0 50 10 50 21 0 5 -12 3 -26
-3 -23 -11 -28 -10 -41 7 -13 19 -12 20 26 23 31 2 41 7 41 21 0 38 -45 54
-74 25z m52 -6 c19 -19 14 -28 -18 -28 -41 0 -40 33 1 39 3 1 10 -4 17 -11z"/>
<path d="M4882 8810 c1 -46 2 -49 5 -15 3 26 12 46 26 57 l21 16 -27 -1 c-26
-2 -27 -4 -25 -57z"/>
<path d="M2303 8833 c9 -2 23 -2 30 0 6 3 -1 5 -18 5 -16 0 -22 -2 -12 -5z"/>
<path d="M15190 8080 c0 -5 7 -10 15 -10 8 0 15 5 15 10 0 6 -7 10 -15 10 -8
0 -15 -4 -15 -10z"/>
<path d="M14640 8070 c0 -5 11 -10 25 -10 24 0 25 -3 25 -60 0 -47 3 -60 15
-60 12 0 15 13 15 60 0 53 2 60 20 60 11 0 20 5 20 10 0 6 -27 10 -60 10 -33
0 -60 -4 -60 -10z"/>
<path d="M14959 8053 c-3 -79 -5 -88 -21 -91 -28 -5 -34 39 -8 60 19 15 20 19
6 24 -25 9 -46 -15 -46 -51 0 -41 15 -53 63 -53 l37 0 0 69 c0 55 -3 69 -15
69 -9 0 -15 -10 -16 -27z"/>
<path d="M15140 8010 c0 -56 3 -70 15 -70 12 0 15 14 15 70 0 56 -3 70 -15 70
-12 0 -15 -14 -15 -70z"/>
<path d="M13014 8055 c-4 -8 -14 -15 -25 -15 -24 0 -42 -33 -27 -48 9 -9 9
-15 0 -24 -15 -15 3 -48 27 -48 11 0 21 -7 25 -15 3 -8 15 -15 26 -15 11 0 23
7 26 15 4 8 14 15 25 15 24 0 42 33 27 48 -9 9 -9 15 0 24 15 15 -3 48 -27 48
-11 0 -21 7 -25 15 -3 8 -15 15 -26 15 -11 0 -23 -7 -26 -15z m46 -9 c0 -8 10
-16 22 -18 20 -3 23 -9 23 -48 0 -37 -4 -45 -20 -49 -11 -2 -24 -9 -28 -17
-11 -19 -37 -18 -37 1 0 9 -9 15 -24 15 -22 0 -23 4 -21 48 1 38 5 48 21 51
10 2 23 9 27 17 10 18 37 18 37 0z"/>
<path d="M13014 7995 c-9 -23 3 -45 25 -45 25 0 34 14 26 40 -7 23 -43 27 -51
5z m42 -6 c10 -17 -13 -36 -27 -22 -12 12 -4 33 11 33 5 0 12 -5 16 -11z"/>
<path d="M15368 8058 c-3 -7 -2 -35 1 -63 5 -42 10 -51 29 -53 12 -2 22 1 22
7 0 6 -4 11 -10 11 -15 0 -12 68 2 72 9 3 8 9 -4 21 -20 20 -34 22 -40 5z"/>
<path d="M11048 8039 c-10 -5 -18 -15 -18 -20 0 -6 7 -3 16 5 20 21 43 20 66
-1 22 -20 24 -11 2 11 -18 18 -41 20 -66 5z"/>
<path d="M11703 8044 c3 -3 22 -6 42 -6 20 0 39 3 42 6 4 3 -15 6 -42 6 -27 0
-46 -3 -42 -6z"/>
<path d="M11993 7985 c-1 -38 1 -63 4 -55 2 8 7 22 9 30 4 10 11 7 30 -15 l26
-30 -21 31 c-19 29 -19 32 -3 50 9 10 5 8 -10 -5 l-27 -23 -4 43 c-2 30 -4 21
-4 -26z"/>
<path d="M14773 8024 c-15 -24 -15 -29 -2 -53 11 -19 23 -26 44 -26 21 0 33 7
44 26 13 24 13 29 -2 53 -11 16 -27 26 -42 26 -15 0 -31 -10 -42 -26z m62 -29
c0 -23 -4 -30 -20 -30 -21 0 -31 25 -21 51 11 28 41 12 41 -21z"/>
<path d="M15023 8024 c-15 -24 -15 -29 -2 -53 11 -19 23 -26 44 -26 21 0 33 7
44 26 13 24 13 29 -2 53 -11 16 -27 26 -42 26 -15 0 -31 -10 -42 -26z m62 -29
c0 -23 -4 -30 -20 -30 -21 0 -31 25 -21 51 11 28 41 12 41 -21z"/>
<path d="M15190 7995 c0 -42 3 -55 15 -55 12 0 15 13 15 55 0 42 -3 55 -15 55
-12 0 -15 -13 -15 -55z"/>
<path d="M15263 8043 c-25 -9 -14 -44 17 -54 40 -14 39 -33 -1 -24 -24 5 -30
4 -27 -6 7 -20 62 -23 77 -5 19 23 7 42 -29 49 -19 4 -29 11 -25 18 4 6 18 8
31 5 27 -7 33 8 8 18 -18 7 -33 7 -51 -1z"/>
<path d="M11590 7993 c0 -36 5 -54 18 -64 15 -13 16 -12 4 3 -7 9 -12 34 -11
57 2 22 0 44 -4 47 -4 4 -7 -15 -7 -43z"/>
<path d="M11338 8013 c-14 -4 -18 -14 -16 -51 1 -47 1 -47 5 -8 3 22 12 46 21
53 18 13 17 13 -10 6z"/>
<path d="M11428 8004 c12 -8 20 -20 17 -25 -4 -5 -1 -9 4 -9 6 0 11 4 11 9 0
13 -29 41 -43 41 -6 0 -1 -7 11 -16z"/>
<path d="M11520 8016 c0 -2 7 -7 16 -10 8 -3 12 -2 9 4 -6 10 -25 14 -25 6z"/>
<path d="M11810 8010 c-11 -8 -8 -9 11 -4 30 6 50 -13 28 -27 -12 -7 -12 -9 0
-9 8 0 11 -7 8 -20 -3 -11 -1 -23 4 -26 14 -8 11 70 -3 84 -15 15 -28 15 -48
2z"/>
<path d="M11913 8013 c-22 -8 -14 -32 17 -48 17 -9 30 -11 30 -6 0 5 -11 12
-25 15 -29 7 -32 21 -7 35 17 11 7 13 -15 4z"/>
<path d="M17610 8010 c0 -6 37 -10 90 -10 53 0 90 4 90 10 0 6 -37 10 -90 10
-53 0 -90 -4 -90 -10z"/>
<path d="M11260 7999 c0 -5 5 -7 10 -4 6 3 10 8 10 11 0 2 -4 4 -10 4 -5 0
-10 -5 -10 -11z"/>
<path d="M11387 8003 c-11 -11 -8 -58 5 -71 14 -14 44 -16 52 -4 2 4 -8 8 -22
7 -25 0 -27 3 -27 38 1 20 0 37 0 37 -1 0 -5 -3 -8 -7z"/>
<path d="M11553 7955 c0 -22 2 -30 4 -17 2 12 2 30 0 40 -3 9 -5 -1 -4 -23z"/>
<path d="M13550 7980 c0 -6 37 -10 90 -10 53 0 90 4 90 10 0 6 -37 10 -90 10
-53 0 -90 -4 -90 -10z"/>
<path d="M11800 7959 c0 -5 5 -7 10 -4 6 3 10 8 10 11 0 2 -4 4 -10 4 -5 0
-10 -5 -10 -11z"/>
<path d="M11032 7950 c2 -8 17 -19 32 -25 22 -7 30 -5 49 15 19 21 19 22 1 7
-26 -22 -42 -21 -67 1 -16 13 -19 14 -15 2z"/>
<path d="M11160 7943 c0 -6 5 -15 10 -18 13 -8 50 4 50 16 0 5 -9 4 -20 -3
-17 -11 -22 -10 -30 2 -6 9 -10 10 -10 3z"/>
<path d="M11808 7928 c5 -5 16 -8 23 -6 8 3 3 7 -10 11 -17 4 -21 3 -13 -5z"/>
<path d="M11907 7928 c2 -5 13 -8 23 -8 10 0 21 3 23 8 3 4 -8 7 -23 7 -15 0
-26 -3 -23 -7z"/>
<path d="M13196 7733 c-11 -11 -6 -23 9 -23 8 0 15 4 15 9 0 13 -16 22 -24 14z"/>
<path d="M11182 7643 l2 -88 3 82 4 82 37 4 37 4 -42 1 -43 2 2 -87z"/>
<path d="M12170 7645 c0 -47 4 -85 9 -85 6 0 10 38 10 85 -1 47 -5 85 -10 85
-5 0 -9 -38 -9 -85z"/>
<path d="M13410 7645 c0 -50 4 -85 10 -85 6 0 10 35 10 85 0 50 -4 85 -10 85
-6 0 -10 -35 -10 -85z"/>
<path d="M11259 7709 c-12 -7 -12 -9 1 -10 8 -1 18 -1 22 0 9 1 -1 -29 -15
-46 -5 -7 -21 -13 -34 -13 -23 0 -25 3 -21 34 2 19 1 33 -3 30 -4 -2 -7 -37
-6 -77 1 -39 3 -57 5 -39 2 23 8 32 22 32 10 0 21 -9 25 -19 7 -22 33 -46 41
-38 3 3 -2 16 -10 30 -15 22 -15 26 -1 37 19 15 20 76 2 83 -8 3 -20 1 -28 -4z
m21 -74 c-7 -8 -18 -15 -24 -15 -6 0 -2 7 8 15 25 19 32 19 16 0z"/>
<path d="M12710 7696 c0 -8 -6 -17 -12 -20 -10 -5 -10 -7 0 -12 7 -3 12 -25
12 -54 0 -35 4 -50 16 -54 23 -9 31 1 14 17 -10 10 -11 9 -5 -3 5 -8 4 -12 0
-7 -13 11 -6 90 8 100 9 6 9 10 0 14 -7 2 -13 11 -13 19 0 8 -4 14 -10 14 -5
0 -10 -6 -10 -14z m20 -26 c0 -5 -4 -10 -10 -10 -5 0 -10 5 -10 10 0 6 5 10
10 10 6 0 10 -4 10 -10z"/>
<path d="M13110 7696 c0 -8 -6 -17 -12 -20 -10 -5 -10 -7 0 -12 7 -3 12 -25
12 -54 0 -35 4 -50 16 -54 23 -9 31 1 14 17 -10 10 -11 9 -5 -3 5 -8 4 -12 0
-7 -13 11 -6 90 8 100 9 6 9 10 0 14 -7 2 -13 11 -13 19 0 8 -4 14 -10 14 -5
0 -10 -6 -10 -14z m20 -26 c0 -5 -4 -10 -10 -10 -5 0 -10 5 -10 10 0 6 5 10
10 10 6 0 10 -4 10 -10z"/>
<path d="M16500 7680 c0 -5 5 -10 10 -10 6 0 10 5 10 10 0 6 -4 10 -10 10 -5
0 -10 -4 -10 -10z"/>
<path d="M11350 7661 c-36 -69 28 -141 86 -96 18 14 17 15 -18 9 -31 -5 -39
-2 -53 19 -13 20 -14 30 -5 46 6 12 14 21 18 22 42 5 51 5 47 1 -2 -3 0 -12 4
-21 8 -14 4 -16 -30 -13 -24 3 -39 0 -39 -7 0 -6 19 -11 45 -11 48 0 56 11 35
51 -7 13 -21 19 -45 19 -24 0 -38 -6 -45 -19z"/>
<path d="M11499 7664 c-18 -22 1 -49 34 -49 17 1 29 -7 35 -20 8 -18 6 -21
-16 -23 -14 -1 -31 3 -38 8 -8 8 -14 8 -19 1 -11 -19 42 -36 71 -23 37 18 29
54 -16 68 -19 6 -36 16 -37 21 -6 16 26 24 49 12 23 -12 39 -2 18 11 -23 15
-66 12 -81 -6z"/>
<path d="M11640 7661 c-36 -69 28 -141 86 -96 18 14 17 15 -18 9 -31 -5 -39
-2 -53 19 -13 20 -14 30 -5 46 6 12 14 21 18 22 42 5 51 5 47 1 -2 -3 0 -12 4
-21 8 -14 4 -16 -30 -13 -24 3 -39 0 -39 -7 0 -6 19 -11 45 -11 48 0 56 11 35
51 -7 13 -21 19 -45 19 -24 0 -38 -6 -45 -19z"/>
<path d="M11790 7666 c-15 -19 0 -22 29 -7 34 19 53 -20 39 -78 -2 -7 3 -16
10 -18 10 -4 12 9 10 53 l-3 59 -36 3 c-23 2 -40 -2 -49 -12z"/>
<path d="M11930 7620 c0 -68 17 -82 22 -17 2 32 8 44 26 52 25 11 29 25 7 25
-8 0 -15 -4 -15 -9 0 -5 -7 -11 -14 -14 -10 -4 -13 -1 -9 9 3 7 0 14 -6 14 -7
0 -11 -23 -11 -60z"/>
<path d="M12030 7660 c-19 -36 -8 -83 24 -100 22 -12 30 -12 33 -2 3 6 8 10
13 7 4 -3 13 2 19 9 13 16 2 16 -32 1 -33 -14 -57 26 -41 69 7 19 45 21 62 4
17 -17 28 -2 12 17 -19 23 -77 19 -90 -5z"/>
<path d="M12208 7666 c-10 -7 -18 -17 -18 -21 0 -4 6 -3 13 3 6 5 23 12 36 14
24 3 25 1 22 -49 -2 -34 2 -53 9 -53 7 0 10 20 8 58 -3 53 -5 57 -28 59 -14 2
-33 -3 -42 -11z"/>
<path d="M12380 7590 c0 -73 3 -90 15 -90 11 0 15 11 15 42 0 39 1 40 18 25
21 -20 37 -22 26 -5 -5 7 -2 9 8 5 33 -12 51 49 28 94 -18 32 -75 19 -93 -21
-4 -8 -5 -3 -2 13 3 15 1 27 -5 27 -6 0 -10 -36 -10 -90z m101 73 c4 -45 2
-70 -5 -65 -5 3 -7 -1 -4 -9 9 -23 -41 -18 -58 5 -13 18 -14 15 -16 -35 l-2
-54 -3 47 c-5 56 17 105 49 111 13 2 26 5 31 6 4 0 7 -2 8 -6z"/>
<path d="M12551 7661 c-32 -59 11 -127 65 -103 63 29 50 114 -18 120 -28 2
-39 -1 -47 -17z m83 -40 c1 -22 -1 -38 -3 -35 -2 2 -10 -1 -16 -6 -7 -6 -23
-9 -35 -7 -19 3 -23 10 -24 39 -1 20 2 34 7 31 4 -2 7 0 7 6 0 9 49 20 59 14
2 -1 4 -20 5 -42z m13 -13 c-3 -8 -6 -5 -6 6 -1 11 2 17 5 13 3 -3 4 -12 1
-19z"/>
<path d="M12802 7668 c-7 -7 -12 -29 -12 -50 0 -46 32 -73 74 -62 36 9 33 25
-3 18 -22 -5 -32 -1 -45 17 -20 30 -20 35 4 59 21 21 45 18 59 -9 8 -14 4 -16
-30 -13 -24 3 -39 0 -39 -7 0 -6 19 -11 45 -11 38 0 45 3 45 19 0 42 -68 69
-98 39z"/>
<path d="M12940 7620 c0 -34 4 -60 10 -60 6 0 10 24 8 60 -1 33 -6 60 -10 60
-4 0 -8 -27 -8 -60z"/>
<path d="M12978 7666 c-10 -7 -18 -17 -18 -21 0 -4 6 -3 13 3 6 5 23 12 36 14
24 3 25 1 22 -49 -2 -34 2 -53 9 -53 7 0 10 20 8 58 -3 53 -5 57 -28 59 -14 2
-33 -3 -42 -11z"/>
<path d="M13192 7618 l2 -63 5 60 5 60 6 -60 7 -60 1 63 c2 49 -1 62 -13 62
-12 0 -15 -13 -13 -62z"/>
<path d="M13270 7665 c-10 -12 -10 -15 2 -15 8 0 19 5 24 10 13 13 44 3 45
-14 5 -73 6 -71 -28 -73 -26 -2 -33 1 -33 16 0 13 10 20 32 25 17 3 29 9 25
12 -11 11 -67 -8 -77 -26 -13 -24 15 -55 39 -44 9 4 26 7 39 7 20 -1 22 4 22
52 0 39 -4 54 -16 59 -27 11 -61 6 -74 -9z"/>
<path d="M14962 7608 c0 -40 3 -58 5 -40 5 42 32 43 57 1 20 -34 34 -33 16 1
-9 18 -9 28 1 47 18 34 1 57 -45 61 l-36 3 2 -73z m68 47 c17 -20 -3 -45 -36
-45 -20 0 -24 5 -24 30 0 25 4 30 24 30 13 0 29 -7 36 -15z"/>
<path d="M15710 7610 c0 -40 4 -70 10 -70 6 0 10 20 10 44 0 31 5 46 16 50 26
10 34 -2 34 -50 0 -24 5 -44 10 -44 15 0 12 73 -4 95 -8 12 -20 16 -35 12 -16
-4 -21 -1 -21 14 0 10 -4 19 -10 19 -6 0 -10 -30 -10 -70z"/>
<path d="M16673 7610 c0 -41 2 -58 4 -37 2 20 2 54 0 75 -2 20 -4 3 -4 -38z"/>
<path d="M16133 7655 c-6 -7 -8 -16 -3 -21 5 -5 10 -27 12 -48 2 -24 9 -41 18
-44 12 -4 13 -2 3 9 -15 15 -18 86 -4 91 5 2 4 8 -3 14 -8 8 -15 7 -23 -1z"/>
<path d="M16433 7655 c-6 -7 -8 -16 -3 -21 5 -5 10 -27 12 -49 2 -31 7 -40 23
-43 18 -2 18 -2 3 8 -12 7 -18 23 -18 45 0 22 6 38 18 44 15 9 15 10 0 11 -9
0 -18 4 -20 9 -1 5 -8 3 -15 -4z"/>
<path d="M15092 7638 c-17 -17 -15 -73 2 -88 18 -14 58 -10 64 8 3 11 0 11
-16 1 -17 -10 -23 -10 -36 0 -26 22 -19 31 24 31 44 0 52 16 24 44 -18 19 -45
21 -62 4z m42 -4 c28 -11 18 -34 -14 -34 -32 0 -37 9 -18 28 14 14 12 14 32 6z"/>
<path d="M15201 7631 c-12 -21 -1 -34 37 -46 13 -4 21 -12 19 -18 -5 -15 -47
-22 -47 -8 0 6 -5 11 -11 11 -8 0 -7 -5 1 -16 19 -22 64 -14 68 12 2 16 -4 24
-27 32 -17 6 -31 15 -31 21 0 18 19 22 42 10 21 -11 22 -11 9 4 -18 23 -48 21
-60 -2z"/>
<path d="M15312 7638 c-17 -17 -15 -73 2 -88 18 -14 58 -10 64 8 3 11 0 11
-16 1 -17 -10 -23 -10 -36 0 -26 22 -19 31 24 31 44 0 52 16 24 44 -18 19 -45
21 -62 4z m42 -4 c28 -11 18 -34 -14 -34 -32 0 -37 9 -18 28 14 14 12 14 32 6z"/>
<path d="M15433 7643 c-7 -2 -13 -9 -13 -14 0 -6 9 -5 21 2 14 7 24 8 31 1 14
-14 1 -32 -21 -32 -10 0 -24 -7 -31 -15 -19 -23 5 -45 46 -43 32 1 34 3 34 35
0 60 -24 84 -67 66z m45 -70 c-2 -10 -13 -19 -26 -21 -17 -3 -22 2 -22 17 0
16 6 21 26 21 19 0 25 -5 22 -17z"/>
<path d="M15532 7590 c1 -46 2 -49 5 -15 3 26 12 46 26 57 l21 16 -27 -1 c-26
-2 -27 -4 -25 -57z"/>
<path d="M15612 7638 c-17 -17 -15 -73 2 -88 18 -14 58 -10 64 8 3 11 0 11
-16 1 -17 -10 -23 -10 -36 0 -37 31 -7 93 33 71 12 -6 21 -7 21 -1 0 20 -50
27 -68 9z"/>
<path d="M15892 7575 c1 -44 3 -68 5 -53 4 24 8 27 33 21 25 -4 31 -1 41 20
23 50 -19 108 -56 77 -10 -8 -14 -8 -18 2 -3 7 -5 -23 -5 -67z m62 49 c20 -19
20 -35 2 -60 -12 -15 -18 -17 -33 -8 -22 14 -29 50 -13 70 16 18 25 18 44 -2z"/>
<path d="M16014 7625 c-31 -47 4 -97 56 -80 44 14 27 105 -20 105 -11 0 -27
-11 -36 -25z m54 6 c8 -5 12 -22 10 -42 -2 -29 -7 -34 -28 -34 -20 0 -26 6
-28 28 -2 16 2 35 9 43 13 16 19 17 37 5z"/>
<path d="M16212 7638 c-17 -17 -15 -73 2 -88 18 -14 58 -10 64 8 3 11 0 11
-16 1 -17 -10 -23 -10 -36 0 -26 22 -19 31 24 31 44 0 52 16 24 44 -18 19 -45
21 -62 4z m42 -4 c28 -11 18 -34 -14 -34 -32 0 -37 9 -18 28 14 14 12 14 32 6z"/>
<path d="M16322 7590 c1 -49 2 -50 5 -13 2 23 11 47 19 53 22 19 42 -4 47 -53
l4 -42 1 46 c2 53 -10 68 -50 66 -27 -2 -28 -4 -26 -57z"/>
<path d="M16513 7595 c0 -33 2 -45 4 -27 2 18 2 45 0 60 -2 15 -4 0 -4 -33z"/>
<path d="M16560 7635 c-14 -17 0 -21 16 -5 13 13 46 2 41 -14 -2 -6 -17 -13
-33 -16 -23 -4 -29 -10 -29 -30 0 -22 4 -25 38 -25 l37 -1 0 47 c0 34 -5 49
-16 53 -25 10 -41 7 -54 -9z m58 -57 c-7 -21 -36 -34 -49 -21 -6 6 -8 16 -5
22 10 15 59 14 54 -1z"/>
<path d="M11803 7620 c-30 -12 -31 -56 -2 -65 12 -4 26 -2 32 4 8 8 5 11 -10
11 -12 0 -23 8 -26 20 -3 11 -2 18 1 16 4 -2 21 2 37 9 23 10 25 13 10 14 -11
0 -30 -4 -42 -9z"/>
<path d="M13482 7571 c4 -13 18 -16 19 -4 0 4 -5 9 -11 12 -7 2 -11 -2 -8 -8z"/>
<path d="M13544 7570 c2 -16 20 -14 24 2 3 10 2 10 -6 -1 -7 -9 -11 -10 -15
-2 -4 7 -5 8 -3 1z"/>
<path d="M14647 7542 c-25 -27 -24 -143 1 -165 27 -25 143 -24 165 1 25 27 24
143 -1 165 -27 25 -143 24 -165 -1z m161 -4 c7 -7 12 -40 12 -78 0 -38 -5 -71
-12 -78 -7 -7 -40 -12 -78 -12 -38 0 -71 5 -78 12 -7 7 -12 40 -12 78 0 38 5
71 12 78 7 7 40 12 78 12 38 0 71 -5 78 -12z"/>
<path d="M17585 7533 c-51 -12 -34 -23 38 -23 81 0 103 13 40 24 -41 6 -48 6
-78 -1z"/>
<path d="M17566 7492 c-3 -5 -2 -34 1 -66 l6 -57 56 3 56 3 3 63 3 62 -60 0
c-33 0 -62 -4 -65 -8z"/>
<path d="M15710 7380 c0 -5 5 -10 11 -10 5 0 7 5 4 10 -3 6 -8 10 -11 10 -2 0
-4 -4 -4 -10z"/>
<path d="M14968 7339 c-22 -12 -24 -71 -4 -89 18 -14 58 -10 64 8 3 11 0 11
-16 1 -17 -10 -23 -10 -36 0 -37 31 -5 97 35 73 10 -7 19 -8 19 -3 0 8 -24 21
-38 21 -4 0 -15 -5 -24 -11z"/>
<path d="M15076 7334 c-34 -33 -7 -98 37 -92 12 2 28 15 36 29 13 24 13 29 -2
53 -20 29 -48 34 -71 10z m52 -6 c21 -21 15 -66 -10 -74 -40 -12 -61 54 -24
78 15 10 20 10 34 -4z"/>
<path d="M15180 7293 c0 -29 5 -53 10 -53 6 0 10 20 10 44 0 77 46 70 53 -7
l4 -42 1 48 c1 26 7 48 12 49 32 4 35 0 41 -47 l6 -50 1 53 c2 58 -14 75 -49
54 -10 -7 -20 -8 -24 -2 -3 5 -19 8 -35 8 -29 -1 -30 -2 -30 -55z"/>
<path d="M15362 7275 c1 -44 3 -68 5 -53 4 24 8 27 33 21 25 -4 31 -1 41 20
23 50 -19 108 -56 77 -10 -8 -14 -8 -18 2 -3 7 -5 -23 -5 -67z m62 49 c20 -19
20 -35 2 -60 -12 -15 -18 -17 -33 -8 -22 14 -29 50 -13 70 16 18 25 18 44 -2z"/>
<path d="M15490 7335 c-15 -18 1 -20 18 -3 10 10 16 8 29 -5 18 -17 13 -22
-32 -29 -14 -2 -20 -11 -20 -28 0 -22 4 -25 38 -25 37 -1 37 0 37 40 0 59 -39
87 -70 50z m58 -57 c-7 -21 -36 -34 -49 -21 -6 6 -8 16 -5 22 10 15 59 14 54
-1z"/>
<path d="M15590 7293 c0 -29 5 -53 10 -53 6 0 10 20 10 44 0 31 5 46 16 50 26
10 34 -2 34 -50 0 -24 5 -44 10 -44 13 0 13 66 0 90 -7 14 -20 19 -45 18 l-35
-1 0 -54z"/>
<path d="M15713 7295 c0 -33 2 -45 4 -27 2 18 2 45 0 60 -2 15 -4 0 -4 -33z"/>
<path d="M15765 7326 c-23 -34 -13 -74 20 -82 29 -7 55 1 55 17 0 8 -4 8 -15
-1 -17 -14 -55 -4 -55 15 0 9 14 15 40 17 39 3 39 4 27 28 -17 35 -52 38 -72
6z m53 2 c19 -19 14 -28 -18 -28 -41 0 -40 33 1 39 3 1 10 -4 17 -11z"/>
<path d="M15882 7338 c-20 -20 -14 -35 18 -47 17 -5 30 -15 30 -21 0 -18 -29
-23 -47 -9 -14 12 -16 12 -11 -1 6 -21 52 -24 68 -6 10 13 10 19 0 31 -7 8
-18 15 -26 15 -18 0 -28 20 -16 32 8 8 16 7 28 -3 15 -12 17 -12 12 1 -6 19
-40 24 -56 8z"/>
<path d="M2390 7270 c0 -54 3 -70 14 -70 10 0 16 14 18 43 l3 42 29 -42 c43
-64 56 -57 56 27 0 54 -3 70 -14 70 -10 0 -16 -14 -18 -42 l-3 -43 -29 43
c-43 63 -56 56 -56 -28z"/>
<path d="M4760 7333 c0 -4 12 -20 27 -35 l27 -28 -29 -30 c-37 -39 -24 -52 15
-15 l30 29 30 -29 c39 -37 52 -24 15 15 l-29 30 29 30 c37 39 24 52 -15 15
l-30 -29 -28 27 c-28 27 -42 33 -42 20z"/>
<path d="M2661 7314 c-10 -12 -10 -19 -2 -27 6 -6 11 -26 11 -44 0 -21 6 -36
15 -40 21 -7 32 4 17 19 -16 16 -15 65 0 70 9 3 8 9 -4 21 -20 20 -19 20 -37
1z"/>
<path d="M2546 7294 c-34 -33 -9 -94 38 -94 31 0 46 19 46 57 0 48 -51 71 -84
37z m54 -19 c16 -19 3 -57 -18 -53 -18 3 -27 30 -18 54 7 18 20 18 36 -1z"/>
<path d="M2746 7294 c-34 -33 -9 -94 38 -94 13 0 29 7 36 15 11 13 8 15 -20
13 -19 -2 -35 2 -37 10 -3 8 7 12 31 12 25 0 36 5 36 14 0 20 -28 46 -50 46
-10 0 -26 -7 -34 -16z m54 -19 c0 -8 -9 -15 -20 -15 -20 0 -26 11 -13 23 12
13 33 7 33 -8z"/>
<path d="M16610 7030 c0 -5 5 -10 10 -10 6 0 10 5 10 10 0 6 -4 10 -10 10 -5
0 -10 -4 -10 -10z"/>
<path d="M14962 6958 c1 -40 3 -56 5 -36 4 33 8 37 36 41 l32 4 -32 1 c-28 2
-33 6 -33 26 0 21 5 25 38 29 l37 4 -42 1 -43 2 2 -72z"/>
<path d="M15183 6960 c0 -41 2 -58 4 -37 2 20 2 54 0 75 -2 20 -4 3 -4 -38z"/>
<path d="M15233 6960 c0 -41 2 -58 4 -37 2 20 2 54 0 75 -2 20 -4 3 -4 -38z"/>
<path d="M15078 6989 c-21 -12 -24 -69 -6 -87 7 -7 21 -12 33 -12 30 0 45 19
45 57 0 44 -34 64 -72 42z m50 -11 c30 -30 -2 -93 -36 -71 -21 13 -27 50 -12
69 15 17 32 18 48 2z"/>
<path d="M15286 6984 c-34 -33 -7 -98 37 -92 12 2 28 15 36 29 13 24 13 29 -2
53 -20 29 -48 34 -71 10z m52 -6 c21 -21 15 -66 -10 -74 -40 -12 -61 54 -24
78 15 10 20 10 34 -4z"/>
<path d="M15391 6989 c-1 -19 18 -80 29 -92 4 -5 14 11 22 35 l15 43 13 -42
c7 -24 17 -43 22 -43 4 0 8 3 8 8 0 4 7 28 15 55 8 26 10 47 6 47 -5 0 -12
-16 -15 -35 -10 -49 -23 -52 -31 -5 -4 22 -10 40 -15 40 -5 0 -15 -19 -22 -42
l-15 -43 -16 45 c-8 25 -16 38 -16 29z"/>
<path d="M15612 6959 c-2 -53 10 -68 50 -66 27 2 28 4 26 57 -1 49 -2 50 -5
13 -2 -23 -11 -47 -19 -53 -22 -19 -42 4 -47 53 l-4 42 -1 -46z"/>
<path d="M15732 6925 c1 -44 3 -68 5 -53 4 24 8 27 33 21 25 -4 31 -1 41 20
23 50 -19 108 -56 77 -10 -8 -14 -8 -18 2 -3 7 -5 -23 -5 -67z m62 49 c20 -19
20 -35 2 -60 -12 -15 -18 -17 -33 -8 -22 14 -29 50 -13 70 16 18 25 18 44 -2z"/>
<path d="M15916 6984 c-34 -33 -7 -98 37 -92 12 2 28 15 36 29 13 24 13 29 -2
53 -20 29 -48 34 -71 10z m52 -6 c21 -21 15 -66 -10 -74 -40 -12 -61 54 -24
78 15 10 20 10 34 -4z"/>
<path d="M16032 6940 c1 -49 2 -50 5 -13 2 23 11 47 19 53 22 19 42 -4 47 -53
l4 -42 1 46 c2 53 -10 68 -50 66 -27 -2 -28 -4 -26 -57z"/>
<path d="M16202 6925 c1 -44 3 -68 5 -53 4 24 8 27 33 21 25 -4 31 -1 41 20
23 50 -19 108 -56 77 -10 -8 -14 -8 -18 2 -3 7 -5 -23 -5 -67z m62 49 c20 -19
20 -35 2 -60 -12 -15 -18 -17 -33 -8 -22 14 -29 50 -13 70 16 18 25 18 44 -2z"/>
<path d="M16322 6940 c1 -46 2 -49 5 -15 3 26 12 46 26 57 l21 16 -27 -1 c-26
-2 -27 -4 -25 -57z"/>
<path d="M16402 6988 c-17 -17 -15 -73 2 -88 18 -14 58 -10 64 8 3 11 0 11
-16 1 -17 -10 -23 -10 -36 0 -26 22 -19 31 24 31 44 0 52 16 24 44 -18 19 -45
21 -62 4z m42 -4 c28 -11 18 -34 -14 -34 -32 0 -37 9 -18 28 14 14 12 14 32 6z"/>
<path d="M16501 6995 c-2 -17 33 -105 41 -105 4 0 8 2 8 5 0 2 9 27 20 55 11
27 16 50 11 50 -4 0 -13 -18 -20 -40 -11 -38 -30 -55 -31 -27 -1 16 -28 75
-29 62z"/>
<path d="M16623 6945 c0 -33 2 -45 4 -27 2 18 2 45 0 60 -2 15 -4 0 -4 -33z"/>
<path d="M16678 6989 c-21 -12 -24 -69 -6 -87 7 -7 21 -12 33 -12 30 0 45 19
45 57 0 44 -34 64 -72 42z m50 -11 c30 -30 -2 -93 -36 -71 -21 13 -27 50 -12
69 15 17 32 18 48 2z"/>
<path d="M16780 6956 c0 -49 13 -65 52 -63 27 2 28 4 26 57 -1 49 -2 50 -5 13
-7 -77 -53 -84 -53 -7 0 24 -4 44 -10 44 -5 0 -10 -20 -10 -44z"/>
<path d="M16904 6985 c-9 -23 3 -45 25 -45 25 0 37 -18 22 -33 -9 -9 -16 -8
-31 1 -27 16 -35 15 -20 -4 8 -8 25 -14 39 -12 36 4 37 49 2 58 -14 3 -26 11
-29 18 -6 18 26 26 43 12 9 -7 15 -8 15 -2 0 23 -58 29 -66 7z"/>
<path d="M14647 6892 c-25 -27 -24 -143 1 -165 27 -25 143 -24 165 1 25 27 24
143 -1 165 -27 25 -143 24 -165 -1z m161 -4 c7 -7 12 -40 12 -78 0 -38 -5 -71
-12 -78 -7 -7 -40 -12 -78 -12 -38 0 -71 5 -78 12 -7 7 -12 40 -12 78 0 38 5
71 12 78 7 7 40 12 78 12 38 0 71 -5 78 -12z"/>
<path d="M17585 6883 c-51 -12 -34 -23 38 -23 81 0 103 13 40 24 -41 6 -48 6
-78 -1z"/>
<path d="M4138 6842 c-8 -13 -11 -38 -8 -73 4 -50 5 -51 8 -14 2 22 10 46 19
53 15 11 15 12 -3 12 -18 1 -18 1 -1 14 11 8 14 17 8 20 -5 4 -16 -2 -23 -12z"/>
<path d="M2551 6783 c1 -38 4 -56 6 -40 6 35 39 37 55 2 6 -14 15 -25 20 -25
5 0 4 10 -3 21 -8 16 -8 28 0 46 17 37 -2 63 -44 63 l-35 0 1 -67z m67 30 c3
-22 -28 -40 -48 -28 -12 7 -13 38 -3 49 15 14 48 1 51 -21z"/>
<path d="M3190 6788 l0 -63 35 -2 c40 -3 59 21 49 61 -6 26 -36 42 -54 31 -5
-3 -10 3 -10 14 0 12 -4 21 -10 21 -6 0 -10 -27 -10 -62z m65 -18 c0 -41 -27
-53 -45 -21 -14 27 4 64 28 59 12 -2 17 -13 17 -38z"/>
<path d="M3503 6785 c0 -38 2 -60 4 -47 5 27 19 28 35 2 7 -11 17 -20 21 -20
5 0 -1 13 -12 28 l-20 29 22 21 c12 12 17 22 11 22 -6 0 -19 -10 -30 -21 l-19
-21 -6 38 c-5 29 -6 21 -6 -31z"/>
<path d="M4030 6785 c0 -37 4 -65 10 -65 6 0 10 28 10 65 0 37 -4 65 -10 65
-6 0 -10 -28 -10 -65z"/>
<path d="M17566 6842 c-3 -5 -2 -34 1 -66 l6 -57 56 3 56 3 3 63 3 62 -60 0
c-33 0 -62 -4 -65 -8z"/>
<path d="M2672 6808 c-7 -7 -12 -27 -12 -45 0 -27 5 -34 26 -39 14 -4 30 -2
35 3 5 5 -2 9 -18 8 -18 0 -29 6 -31 18 -3 14 4 17 32 17 39 0 45 10 20 34
-19 19 -36 20 -52 4z m48 -13 c11 -13 8 -15 -19 -15 -31 0 -42 14 -18 23 20 9
24 8 37 -8z"/>
<path d="M2767 6778 c9 -24 20 -47 24 -52 9 -10 25 25 34 72 3 15 -2 7 -12
-18 l-16 -45 -18 43 c-24 55 -34 55 -12 0z"/>
<path d="M2863 6770 c0 -30 2 -43 4 -27 2 15 2 39 0 55 -2 15 -4 2 -4 -28z"/>
<path d="M2912 6808 c-7 -7 -12 -27 -12 -45 0 -27 5 -34 26 -39 14 -4 30 -2
35 3 5 5 -2 9 -18 8 -18 0 -29 6 -31 18 -3 14 4 17 32 17 39 0 45 10 20 34
-19 19 -36 20 -52 4z m48 -13 c11 -13 8 -15 -19 -15 -31 0 -42 14 -18 23 20 9
24 8 37 -8z"/>
<path d="M3006 6773 c20 -67 20 -67 46 7 5 12 7 11 13 -5 21 -61 22 -62 32
-35 6 14 13 39 16 55 5 25 3 24 -12 -10 l-18 -40 -7 32 c-10 45 -25 51 -32 13
-9 -42 -21 -46 -29 -10 -4 16 -10 32 -15 35 -4 3 -2 -16 6 -42z"/>
<path d="M3313 6813 c-7 -2 -13 -9 -13 -15 0 -6 6 -6 15 2 16 13 45 7 45 -9 0
-5 -14 -12 -31 -16 -24 -5 -29 -11 -27 -28 2 -17 10 -22 36 -23 30 -1 32 1 32
36 0 49 -20 68 -57 53z m45 -60 c-4 -23 -48 -31 -48 -10 0 9 6 18 13 20 25 11
38 7 35 -10z"/>
<path d="M3412 6808 c-7 -7 -12 -27 -12 -45 0 -26 5 -34 24 -39 27 -6 46 1 46
18 0 7 -5 6 -15 -2 -23 -19 -45 -4 -45 29 0 32 24 48 46 30 9 -7 14 -8 14 -1
0 9 -22 22 -39 22 -4 0 -12 -5 -19 -12z"/>
<path d="M3652 6808 c-7 -7 -12 -24 -12 -38 0 -14 5 -31 12 -38 14 -14 44 -16
52 -4 2 4 -7 8 -22 7 -17 0 -28 6 -30 18 -3 14 4 17 32 17 39 0 45 10 20 34
-19 19 -36 20 -52 4z m48 -13 c11 -13 8 -15 -20 -15 -28 0 -31 2 -20 15 7 8
16 15 20 15 4 0 13 -7 20 -15z"/>
<path d="M3742 6765 c1 -42 2 -44 5 -13 4 39 28 67 43 52 5 -5 10 -27 13 -49
l4 -40 1 42 c1 23 7 45 12 48 18 11 39 -15 43 -53 l4 -37 1 42 c2 51 -7 58
-75 58 l-53 0 2 -50z"/>
<path d="M3904 6809 c-4 -7 0 -9 14 -5 24 8 41 -12 21 -25 -10 -6 -11 -9 -1
-9 17 0 15 -30 -4 -37 -23 -9 -43 15 -24 28 13 9 13 10 0 6 -8 -2 -15 -12 -15
-23 0 -15 8 -19 38 -21 35 -1 37 1 37 29 0 16 -5 38 -10 49 -12 21 -45 26 -56
8z"/>
<path d="M4192 6765 c1 -43 2 -45 5 -13 3 23 12 43 24 52 20 14 20 14 -5 12
-25 -1 -26 -4 -24 -51z"/>
<path d="M4261 6806 c-31 -37 9 -103 47 -80 36 23 23 94 -18 94 -10 0 -23 -6
-29 -14z m49 -10 c6 -8 10 -25 8 -38 -2 -17 -10 -23 -28 -23 -18 0 -26 6 -28
23 -3 22 13 52 28 52 4 0 13 -7 20 -14z"/>
<path d="M4368 6813 c-14 -3 -18 -15 -18 -49 0 -56 18 -58 22 -1 4 60 31 58
39 -3 6 -43 6 -43 7 -9 2 38 26 69 42 53 5 -5 10 -27 13 -49 4 -39 4 -39 5 8
2 51 -15 70 -42 48 -10 -8 -16 -9 -21 -1 -6 10 -17 11 -47 3z"/>
<path d="M3990 6765 c0 -25 5 -45 10 -45 6 0 10 20 10 45 0 25 -4 45 -10 45
-5 0 -10 -20 -10 -45z"/>
<path d="M15973 6720 c-3 -11 -10 -20 -15 -20 -7 0 -7 -5 0 -13 6 -7 12 -33
15 -57 l4 -45 1 47 c1 33 7 50 20 57 16 10 16 10 0 11 -10 0 -18 4 -18 10 0 5
8 14 18 19 16 10 16 10 -1 11 -11 0 -21 -9 -24 -20z"/>
<path d="M16044 6718 c-11 -29 -6 -128 7 -128 5 0 9 22 9 49 0 30 5 51 13 54
10 4 10 6 0 6 -7 1 -13 7 -13 15 0 8 6 17 13 19 8 4 6 6 -4 6 -9 1 -20 -9 -25
-21z"/>
<path d="M15670 6660 c0 -40 4 -70 10 -70 6 0 10 20 10 44 0 31 5 46 16 50 26
10 34 -2 34 -50 0 -24 5 -44 10 -44 15 0 12 73 -4 95 -8 12 -20 16 -35 12 -16
-4 -21 -1 -21 14 0 10 -4 19 -10 19 -6 0 -10 -30 -10 -70z"/>
<path d="M15193 6705 c-6 -7 -8 -16 -3 -21 5 -5 10 -27 12 -48 2 -24 9 -41 18
-44 12 -4 13 -2 3 9 -15 15 -18 86 -4 91 5 2 4 8 -3 14 -8 8 -15 7 -23 -1z"/>
<path d="M16309 6708 c-5 -66 7 -118 29 -118 12 0 13 3 4 12 -15 15 -16 88 -1
88 6 0 4 7 -5 15 -18 18 -26 19 -27 3z"/>
<path d="M14968 6689 c-21 -12 -24 -69 -6 -87 7 -7 21 -12 33 -12 30 0 45 19
45 57 0 44 -34 64 -72 42z m50 -11 c30 -30 -2 -93 -36 -71 -21 13 -27 50 -12
69 15 17 32 18 48 2z"/>
<path d="M15070 6656 c0 -49 13 -65 52 -63 27 2 28 4 26 57 -1 49 -2 50 -5 13
-7 -77 -53 -84 -53 -7 0 24 -4 44 -10 44 -5 0 -10 -20 -10 -44z"/>
<path d="M15262 6640 c1 -46 2 -49 5 -15 3 26 12 46 26 57 l21 16 -27 -1 c-26
-2 -27 -4 -25 -57z"/>
<path d="M15348 6689 c-22 -12 -24 -71 -4 -89 18 -14 58 -10 64 8 3 11 0 11
-16 1 -17 -10 -23 -10 -36 0 -26 22 -19 31 24 31 44 0 52 16 24 44 -18 18 -32
20 -56 5z m51 -12 c14 -18 4 -27 -31 -27 -30 0 -35 9 -16 28 16 16 33 15 47
-1z"/>
<path d="M15463 6693 c-7 -2 -13 -9 -13 -14 0 -6 9 -5 21 2 14 7 24 8 31 1 14
-14 1 -32 -21 -32 -10 0 -24 -7 -31 -15 -19 -23 5 -45 46 -43 32 1 34 3 34 35
0 60 -24 84 -67 66z m45 -70 c-2 -10 -13 -19 -26 -21 -17 -3 -22 2 -22 17 0
16 6 21 26 21 19 0 25 -5 22 -17z"/>
<path d="M15572 6688 c-17 -17 -15 -73 2 -88 18 -14 58 -10 64 8 3 11 0 11
-16 1 -17 -10 -23 -10 -36 0 -37 31 -7 93 33 71 12 -6 21 -7 21 -1 0 20 -50
27 -68 9z"/>
<path d="M15855 6676 c-23 -34 -13 -74 20 -82 29 -7 55 1 55 17 0 8 -4 8 -15
-1 -17 -14 -55 -4 -55 15 0 9 14 15 40 17 39 3 39 4 27 28 -17 35 -52 38 -72
6z m53 2 c19 -19 14 -28 -18 -28 -41 0 -40 33 1 39 3 1 10 -4 17 -11z"/>
<path d="M16118 6689 c-21 -12 -24 -69 -6 -87 7 -7 21 -12 33 -12 30 0 45 19
45 57 0 44 -34 64 -72 42z m50 -11 c30 -30 -2 -93 -36 -71 -21 13 -27 50 -12
69 15 17 32 18 48 2z"/>
<path d="M16220 6644 c0 -30 5 -54 10 -54 6 0 10 19 10 41 0 28 6 46 17 54 15
11 14 13 -10 13 -26 0 -27 -3 -27 -54z"/>
<path d="M16381 6681 c-12 -21 -1 -34 37 -46 13 -4 21 -12 19 -18 -5 -15 -47
-22 -47 -8 0 6 -5 11 -11 11 -8 0 -7 -5 1 -16 19 -22 64 -14 68 12 2 16 -4 24
-27 32 -17 6 -31 15 -31 21 0 18 19 22 42 10 21 -11 22 -11 9 4 -18 23 -48 21
-60 -2z"/>
<path d="M11934 6670 c-26 -10 -54 -48 -54 -72 0 -28 44 -23 58 6 22 49 95 35
100 -19 2 -26 -9 -41 -78 -110 -53 -53 -80 -87 -80 -102 0 -23 2 -23 110 -23
l110 0 0 25 c0 24 -2 25 -71 25 l-71 0 64 69 c68 71 83 105 67 151 -18 49 -95
74 -155 50z"/>
<path d="M12218 6572 c-40 -63 -68 -120 -68 -135 0 -27 0 -27 75 -27 l75 0 0
-30 c0 -27 3 -30 30 -30 27 0 30 3 30 30 0 23 4 30 20 30 15 0 20 7 20 25 0
18 -5 25 -20 25 -18 0 -20 8 -22 108 l-3 107 -35 3 c-34 2 -36 1 -102 -106z
m82 -37 l0 -75 -50 0 -49 0 47 75 c26 41 48 75 50 75 1 0 2 -34 2 -75z"/>
<path d="M12605 6668 c-2 -7 -6 -45 -10 -84 -6 -68 -5 -72 16 -77 12 -3 31 -1
41 4 52 28 118 -22 99 -73 -19 -51 -92 -63 -106 -18 -4 14 -15 20 -36 20 -34
0 -34 -1 -14 -41 29 -55 121 -68 174 -23 52 44 51 132 -3 169 -24 18 -79 19
-108 4 -19 -10 -20 -9 -15 12 4 13 7 34 7 47 0 21 4 22 70 22 68 0 70 1 70 25
0 25 -1 25 -90 25 -64 0 -92 -4 -95 -12z"/>
<path d="M12903 6653 c-30 -19 -43 -35 -43 -50 0 -28 4 -28 46 -2 l34 21 0
-136 0 -136 30 0 30 0 -2 163 -3 162 -25 3 c-14 1 -44 -10 -67 -25z"/>
<path d="M12460 6606 c-27 -33 18 -72 48 -42 13 13 14 20 6 34 -15 23 -38 26
-54 8z"/>
<path d="M3360 6535 c0 -62 1 -65 24 -65 40 0 56 11 56 36 0 13 -5 24 -10 24
-6 0 -5 8 2 19 16 26 -5 51 -43 51 -29 0 -29 0 -29 -65z m65 45 c9 -15 -14
-40 -36 -40 -14 0 -19 7 -19 25 0 20 5 25 24 25 14 0 28 -5 31 -10z m0 -75 c0
-14 -8 -21 -27 -23 -24 -3 -28 0 -28 23 0 23 4 26 28 23 19 -2 27 -9 27 -23z"/>
<path d="M2562 6558 c-7 -7 -12 -27 -12 -45 0 -26 5 -34 24 -39 27 -6 46 1 46
18 0 7 -5 6 -15 -2 -23 -19 -45 -4 -45 29 0 32 24 48 46 30 9 -7 14 -8 14 -1
0 9 -22 22 -39 22 -4 0 -12 -5 -19 -12z"/>
<path d="M2656 6554 c-30 -30 -11 -84 29 -84 29 0 49 32 39 63 -12 39 -42 48
-68 21z m54 -14 c8 -14 8 -26 0 -40 -23 -42 -72 -9 -52 35 14 30 37 32 52 5z"/>
<path d="M2752 6515 c1 -42 2 -44 5 -13 4 39 28 67 43 52 5 -5 10 -27 13 -49
l4 -40 1 42 c1 23 7 45 12 48 18 11 39 -15 43 -53 l4 -37 1 42 c2 51 -7 58
-75 58 l-53 0 2 -50z"/>
<path d="M2918 6563 c-15 -4 -18 -16 -18 -64 0 -33 4 -59 10 -59 6 0 10 9 10
19 0 15 5 18 21 14 40 -11 65 50 33 81 -16 16 -24 17 -56 9z m52 -23 c14 -26
-4 -63 -28 -58 -18 3 -28 39 -18 64 8 20 34 17 46 -6z"/>
<path d="M3023 6563 c-7 -2 -13 -9 -13 -15 0 -6 6 -6 15 2 16 13 45 7 45 -9 0
-5 -14 -12 -31 -16 -24 -5 -29 -11 -27 -28 2 -17 10 -22 36 -23 30 -1 32 1 32
36 0 49 -20 68 -57 53z m45 -60 c-4 -23 -48 -31 -48 -10 0 9 6 18 13 20 25 11
38 7 35 -10z"/>
<path d="M3112 6515 c1 -42 2 -44 5 -13 4 39 28 67 43 52 5 -5 11 -27 13 -49
3 -33 4 -31 3 10 -1 49 -1 50 -33 50 l-33 1 2 -51z"/>
<path d="M3200 6565 c0 -3 7 -22 15 -42 18 -43 19 -70 3 -76 -9 -4 -8 -6 3 -6
10 -1 23 20 37 61 12 33 20 63 18 65 -2 2 -9 -12 -16 -31 -14 -44 -26 -46 -35
-6 -6 25 -25 53 -25 35z"/>
<path d="M12460 6446 c-27 -33 18 -72 48 -42 13 13 14 20 6 34 -15 23 -38 26
-54 8z"/>
<path d="M15750 6380 c0 -5 5 -10 10 -10 6 0 10 5 10 10 0 6 -4 10 -10 10 -5
0 -10 -4 -10 -10z"/>
<path d="M16490 6380 c0 -5 5 -10 11 -10 5 0 7 5 4 10 -3 6 -8 10 -11 10 -2 0
-4 -4 -4 -10z"/>
<path d="M6880 6310 c0 -78 17 -96 22 -22 l3 47 33 -47 c18 -27 37 -48 42 -48
6 0 10 32 10 70 0 40 -4 70 -10 70 -5 0 -10 -18 -10 -40 0 -22 -3 -40 -8 -40
-4 0 -18 18 -32 40 -37 60 -50 52 -50 -30z"/>
<path d="M9250 6373 c0 -4 12 -20 27 -35 l27 -28 -29 -30 c-37 -39 -24 -52 15
-15 l30 29 30 -29 c16 -16 33 -25 37 -22 3 4 -6 21 -22 37 l-29 30 29 30 c37
39 24 52 -15 15 l-30 -29 -28 27 c-28 27 -42 33 -42 20z"/>
<path d="M14962 6308 l1 -73 6 60 6 59 39 -57 c22 -31 43 -57 48 -57 4 0 8 32
8 70 0 81 -18 95 -22 18 l-3 -53 -35 52 c-19 29 -38 53 -42 53 -5 0 -7 -33 -6
-72z"/>
<path d="M15653 6310 c0 -41 2 -63 4 -47 5 34 18 34 39 2 9 -14 21 -25 26 -25
5 0 0 14 -12 31 l-22 30 23 25 c12 13 18 24 12 24 -5 0 -20 -12 -34 -26 l-24
-26 -6 44 c-5 33 -6 26 -6 -32z"/>
<path d="M7148 6358 c-3 -7 -2 -35 1 -63 5 -42 10 -51 29 -53 12 -2 22 1 22 7
0 6 -4 11 -10 11 -15 0 -12 68 2 72 9 3 8 9 -4 21 -20 20 -34 22 -40 5z"/>
<path d="M15223 6355 c-6 -7 -8 -16 -3 -21 5 -5 10 -27 12 -49 2 -31 7 -40 23
-43 18 -2 18 -2 3 8 -12 7 -18 23 -18 45 0 22 6 38 18 44 15 9 15 10 0 11 -9
0 -18 4 -20 9 -1 5 -8 3 -15 -4z"/>
<path d="M17123 6355 c-6 -7 -8 -16 -3 -21 5 -5 10 -27 12 -48 2 -24 9 -41 18
-44 12 -4 13 -2 3 9 -15 15 -18 86 -4 91 5 2 4 8 -3 14 -8 8 -15 7 -23 -1z"/>
<path d="M7035 6334 c-26 -26 -16 -77 18 -88 37 -13 61 2 65 41 3 34 -19 63
-48 63 -10 0 -26 -7 -35 -16z m54 -23 c7 -13 6 -23 -3 -36 -16 -22 -36 -12
-36 19 0 39 22 49 39 17z"/>
<path d="M7236 6334 c-19 -18 -21 -65 -4 -82 17 -17 63 -15 79 4 11 14 9 15
-24 9 -30 -6 -37 -4 -37 9 0 12 9 16 35 16 24 0 35 5 35 14 0 20 -28 46 -50
46 -10 0 -26 -7 -34 -16z m52 -22 c2 -7 -6 -12 -17 -12 -21 0 -27 11 -14 24 9
9 26 2 31 -12z"/>
<path d="M15118 6339 c-22 -12 -24 -71 -4 -89 18 -14 58 -10 64 8 3 11 0 11
-16 1 -17 -10 -23 -10 -36 0 -26 22 -19 31 24 31 44 0 52 16 24 44 -18 18 -32
20 -56 5z m51 -12 c14 -18 4 -27 -31 -27 -30 0 -35 9 -16 28 16 16 33 15 47
-1z"/>
<path d="M15291 6339 c-1 -19 18 -80 29 -92 4 -5 14 11 22 35 l15 43 13 -42
c7 -24 17 -43 22 -43 4 0 8 3 8 8 0 4 7 28 15 55 8 26 10 47 6 47 -5 0 -12
-16 -15 -35 -10 -49 -23 -52 -31 -5 -4 22 -10 40 -15 40 -5 0 -15 -19 -22 -42
l-15 -43 -16 45 c-8 25 -16 38 -16 29z"/>
<path d="M15462 6338 c-7 -7 -12 -26 -12 -43 0 -37 16 -55 47 -55 39 0 58 64
27 94 -18 19 -45 21 -62 4z m53 -14 c19 -20 16 -53 -7 -67 -34 -22 -66 41 -36
71 16 16 23 15 43 -4z"/>
<path d="M15572 6290 c1 -46 2 -49 5 -15 3 26 12 46 26 57 l21 16 -27 -1 c-26
-2 -27 -4 -25 -57z"/>
<path d="M15750 6295 c0 -30 5 -55 10 -55 6 0 10 25 10 55 0 30 -4 55 -10 55
-5 0 -10 -25 -10 -55z"/>
<path d="M15801 6290 l2 -55 6 43 c8 49 21 65 44 56 11 -4 17 -21 20 -52 4
-42 4 -41 3 8 l-1 55 -37 0 -38 1 1 -56z"/>
<path d="M15923 6324 c-28 -43 16 -104 53 -73 14 11 15 10 12 -11 -2 -21 -8
-25 -35 -24 -18 1 -30 -2 -27 -7 3 -5 18 -9 34 -9 37 0 50 23 50 92 l0 54 -35
1 c-28 1 -40 -5 -52 -23z m57 2 c6 -8 10 -25 8 -38 -2 -17 -10 -23 -28 -23
-18 0 -26 6 -28 23 -3 22 13 52 28 52 4 0 13 -7 20 -14z"/>
<path d="M16101 6331 c-12 -21 -1 -34 37 -46 13 -4 21 -12 19 -18 -5 -15 -47
-22 -47 -8 0 6 -5 11 -11 11 -8 0 -7 -5 1 -16 19 -22 64 -14 68 12 2 16 -4 24
-27 32 -17 6 -31 15 -31 21 0 18 19 22 42 10 21 -11 22 -11 9 4 -18 23 -48 21
-60 -2z"/>
<path d="M16212 6338 c-17 -17 -15 -73 2 -88 18 -14 58 -10 64 8 3 11 0 11
-16 1 -17 -10 -23 -10 -36 0 -26 22 -19 31 24 31 44 0 52 16 24 44 -18 19 -45
21 -62 4z m42 -4 c28 -11 18 -34 -14 -34 -32 0 -37 9 -18 28 14 14 12 14 32 6z"/>
<path d="M16322 6290 c1 -49 2 -50 5 -13 4 42 24 70 43 58 5 -3 11 -27 12 -53
l1 -47 4 42 c7 77 53 84 53 7 0 -24 5 -44 10 -44 6 0 10 20 10 44 0 52 -21 76
-50 58 -12 -7 -21 -8 -25 -2 -3 5 -19 8 -35 7 -30 -2 -30 -3 -28 -57z"/>
<path d="M16493 6295 c0 -33 2 -45 4 -27 2 18 2 45 0 60 -2 15 -4 0 -4 -33z"/>
<path d="M16542 6290 c1 -49 2 -50 5 -13 2 23 11 47 19 53 22 19 42 -4 47 -53
l4 -42 1 46 c2 53 -10 68 -50 66 -27 -2 -28 -4 -26 -57z"/>
<path d="M16667 6343 c-15 -14 -6 -22 13 -11 15 9 22 10 31 1 16 -16 4 -29
-32 -37 -25 -5 -30 -10 -27 -28 3 -20 10 -23 46 -24 40 -2 42 0 42 26 0 49
-17 80 -43 80 -13 0 -27 -3 -30 -7z m51 -70 c-4 -20 -35 -30 -50 -15 -15 15 0
32 28 32 19 0 25 -5 22 -17z"/>
<path d="M16772 6290 c1 -50 2 -51 5 -13 3 28 11 47 24 57 20 14 20 14 -5 12
-25 -1 -26 -3 -24 -56z"/>
<path d="M16852 6338 c-20 -20 -14 -35 18 -47 17 -5 30 -15 30 -21 0 -18 -29
-23 -47 -9 -14 12 -16 12 -11 -1 6 -21 52 -24 68 -6 10 13 10 19 0 31 -7 8
-18 15 -26 15 -18 0 -28 20 -16 32 8 8 16 7 28 -3 15 -12 17 -12 12 1 -6 19
-40 24 -56 8z"/>
<path d="M17010 6335 c-14 -17 0 -21 16 -5 13 13 46 2 41 -14 -2 -6 -17 -13
-33 -16 -23 -4 -29 -10 -29 -30 0 -22 4 -25 38 -25 l37 -1 0 47 c0 34 -5 49
-16 53 -25 10 -41 7 -54 -9z m58 -57 c-7 -21 -36 -34 -49 -21 -6 6 -8 16 -5
22 10 15 59 14 54 -1z"/>
<path d="M14647 6242 c-25 -27 -24 -143 1 -165 27 -25 143 -24 165 1 25 27 24
143 -1 165 -27 25 -143 24 -165 -1z m161 -4 c7 -7 12 -40 12 -78 0 -38 -5 -71
-12 -78 -7 -7 -40 -12 -78 -12 -38 0 -71 5 -78 12 -7 7 -12 40 -12 78 0 38 5
71 12 78 7 7 40 12 78 12 38 0 71 -5 78 -12z"/>
<path d="M17585 6233 c-51 -12 -34 -23 38 -23 81 0 103 13 40 24 -41 6 -48 6
-78 -1z"/>
<path d="M12315 6181 c-4 -13 -4 -25 -1 -28 3 -4 6 -1 6 6 0 7 5 9 10 6 12 -8
13 5 1 24 -7 11 -10 9 -16 -8z"/>
<path d="M12391 6184 c0 -11 3 -14 6 -6 3 7 2 16 -1 19 -3 4 -6 -2 -5 -13z"/>
<path d="M12583 6135 c-1 -38 1 -63 4 -55 2 8 7 22 10 30 3 11 11 8 30 -15 16
-20 21 -23 14 -8 -6 12 -16 25 -22 28 -7 5 -4 15 8 28 15 19 14 18 -9 -2 l-27
-23 -4 43 c-2 30 -4 21 -4 -26z"/>
<path d="M17566 6192 c-3 -5 -2 -34 1 -66 l6 -57 56 3 56 3 3 63 3 62 -60 0
c-33 0 -62 -4 -65 -8z"/>
<path d="M12261 6154 c0 -11 3 -14 6 -6 3 7 2 16 -1 19 -3 4 -6 -2 -5 -13z"/>
<path d="M12457 6155 c12 -8 24 -25 26 -38 4 -22 4 -22 6 0 1 23 -23 53 -42
53 -6 0 -2 -7 10 -15z"/>
<path d="M12417 6153 c-11 -11 -8 -58 5 -71 14 -14 44 -16 52 -4 2 4 -8 8 -22
7 -25 0 -27 3 -27 38 0 20 0 37 -1 37 0 0 -4 -3 -7 -7z"/>
<path d="M12520 6149 c0 -5 5 -7 10 -4 6 3 10 8 10 11 0 2 -4 4 -10 4 -5 0
-10 -5 -10 -11z"/>
<path d="M4962 6097 c-23 -24 -40 -46 -37 -49 5 -4 95 79 95 88 0 13 -21 -2
-58 -39z"/>
<path d="M12276 6105 c2 -11 4 -24 4 -28 0 -5 5 -5 10 -2 6 3 10 13 10 21 0 8
-4 13 -9 9 -5 -3 -11 0 -14 7 -2 7 -3 4 -1 -7z"/>
<path d="M12370 6111 c0 -7 -4 -9 -10 -6 -12 8 -13 -5 -1 -23 6 -10 10 -8 14
9 4 13 4 25 2 28 -3 2 -5 -1 -5 -8z"/>
<path d="M4987 6072 c-23 -25 -10 -35 14 -11 10 10 19 21 19 24 0 11 -18 4
-33 -13z"/>
<path d="M15119 6070 c-13 -10 -19 -19 -12 -20 6 0 15 5 18 10 8 14 42 13 51
-2 4 -6 -2 -19 -15 -29 -21 -17 -21 -18 -1 -24 11 -3 20 -15 20 -25 0 -22 -37
-37 -53 -21 -17 17 -31 13 -17 -4 16 -20 54 -19 74 1 20 19 20 28 1 44 -11 9
-13 16 -5 24 16 16 12 44 -9 56 -26 13 -25 13 -52 -10z"/>
<path d="M15253 6082 c-46 -29 -32 -142 18 -142 48 0 69 90 29 130 -22 22 -29
24 -47 12z m47 -31 c14 -28 13 -64 -4 -87 -31 -40 -68 19 -52 82 8 29 41 32
56 5z"/>
<path d="M14961 6066 c-10 -12 -9 -13 8 -9 18 5 20 -1 24 -58 l3 -64 2 73 c2
55 -1 72 -12 72 -7 0 -19 -6 -25 -14z"/>
<path d="M15410 6011 c0 -41 4 -71 10 -71 6 0 10 13 10 29 0 26 4 30 31 33 71
7 63 71 -10 76 l-41 3 0 -70z m75 29 c0 -20 -6 -26 -27 -28 -25 -3 -28 0 -28
28 0 28 3 31 28 28 21 -2 27 -8 27 -28z"/>
<path d="M15542 6008 l1 -73 6 60 6 60 24 -57 c13 -32 26 -58 30 -58 4 0 16
24 27 53 l19 52 3 -52 c4 -78 22 -64 22 17 0 41 -4 70 -10 70 -6 0 -22 -26
-36 -57 l-27 -58 -25 58 c-14 31 -29 57 -34 57 -4 0 -7 -33 -6 -72z"/>
<path d="M15050 6044 c0 -8 5 -12 10 -9 6 4 8 11 5 16 -9 14 -15 11 -15 -7z"/>
<path d="M15050 5970 c0 -5 5 -10 10 -10 6 0 10 5 10 10 0 6 -4 10 -10 10 -5
0 -10 -4 -10 -10z"/>
<path d="M7040 5825 l0 -65 35 0 c38 0 60 25 45 50 -5 8 -6 25 -3 38 7 28 -9
42 -49 42 -28 0 -28 -1 -28 -65z m67 39 c7 -18 -12 -34 -39 -34 -13 0 -18 8
-18 25 0 20 5 25 25 25 14 0 28 -7 32 -16z m-2 -69 c0 -14 -8 -21 -27 -23 -24
-3 -28 0 -28 23 0 23 4 26 28 23 19 -2 27 -9 27 -23z"/>
<path d="M7722 5863 c-7 -7 -8 -13 -3 -13 5 0 11 -19 13 -42 2 -26 9 -43 18
-46 12 -4 13 -2 3 9 -15 15 -17 76 -4 81 5 2 4 8 -3 14 -8 8 -15 7 -24 -3z"/>
<path d="M7938 5869 c-2 -6 -1 -32 2 -57 4 -37 9 -47 25 -50 18 -2 18 -2 3 8
-19 12 -24 59 -9 76 6 5 4 14 -4 21 -9 8 -15 9 -17 2z"/>
<path d="M7152 5805 c1 -43 2 -45 5 -13 3 23 12 43 24 52 20 14 20 14 -5 12
-25 -1 -26 -4 -24 -51z"/>
<path d="M7223 5810 c0 -30 2 -43 4 -27 2 15 2 39 0 55 -2 15 -4 2 -4 -28z"/>
<path d="M7262 5805 l1 -50 6 45 c5 36 10 45 26 45 16 0 21 -9 26 -45 l6 -45
1 41 c2 46 -12 64 -46 61 -20 -1 -22 -6 -20 -52z"/>
<path d="M7372 5848 c-17 -17 -15 -63 3 -78 8 -6 23 -9 35 -5 11 3 20 2 20 -3
0 -18 -29 -34 -52 -27 -21 5 -21 5 -4 -6 13 -8 25 -8 42 0 22 9 24 17 24 73 0
39 -4 58 -9 49 -6 -9 -11 -10 -15 -2 -9 14 -29 14 -44 -1z m48 -17 c13 -25 13
-27 -5 -45 -9 -8 -22 -13 -30 -10 -18 7 -20 60 -2 67 21 9 26 7 37 -12z"/>
<path d="M7522 5805 l1 -50 6 45 c5 36 10 45 26 45 16 0 21 -9 26 -45 l6 -45
1 41 c2 46 -12 64 -46 61 -20 -1 -22 -6 -20 -52z"/>
<path d="M7626 5844 c-30 -30 -11 -84 29 -84 29 0 49 32 39 63 -12 39 -42 48
-68 21z m54 -14 c8 -14 8 -26 0 -40 -23 -42 -72 -9 -52 35 14 30 37 32 52 5z"/>
<path d="M7796 5844 c-19 -18 -21 -55 -4 -72 15 -15 55 -16 64 -1 4 8 -1 9
-15 4 -23 -7 -55 11 -45 26 3 5 18 9 35 9 30 0 38 17 17 38 -16 16 -33 15 -52
-4z m38 0 c27 -10 18 -24 -15 -24 -27 0 -30 2 -19 15 14 17 13 17 34 9z"/>
<path d="M8012 5848 c-7 -7 -12 -27 -12 -45 0 -27 5 -34 25 -39 48 -12 75 44
39 80 -19 19 -36 20 -52 4z m52 -21 c14 -22 -4 -52 -30 -52 -14 0 -20 8 -22
29 -5 44 29 59 52 23z"/>
<path d="M8163 5853 c-23 -9 -14 -32 17 -48 36 -19 30 -40 -9 -30 -19 5 -23 4
-15 -5 17 -17 58 -8 62 13 3 12 -6 21 -28 28 -34 12 -35 34 -2 33 12 0 19 3
16 8 -6 9 -22 9 -41 1z"/>
<path d="M8256 5844 c-19 -18 -21 -55 -4 -72 15 -15 55 -16 64 -1 4 8 -1 9
-15 4 -23 -7 -55 11 -45 26 3 5 18 9 35 9 30 0 38 17 17 38 -16 16 -33 15 -52
-4z m38 0 c27 -10 18 -24 -15 -24 -27 0 -30 2 -19 15 14 17 13 17 34 9z"/>
<path d="M8352 5805 l1 -50 6 45 c8 61 35 63 39 3 2 -24 7 -43 12 -43 5 0 10
19 12 43 4 60 31 58 39 -3 l6 -45 1 48 c2 51 -15 70 -42 48 -10 -8 -16 -9 -21
-2 -3 6 -17 10 -30 9 -23 -2 -25 -6 -23 -53z"/>
<path d="M8503 5810 c0 -30 2 -43 4 -27 2 15 2 39 0 55 -2 15 -4 2 -4 -28z"/>
<path d="M8542 5805 c1 -42 2 -44 5 -13 4 39 28 67 43 52 5 -5 11 -27 13 -49
3 -33 4 -31 3 10 -1 49 -1 50 -33 50 l-33 1 2 -51z"/>
<path d="M8650 5850 c-11 -7 -8 -9 14 -7 40 3 44 -20 6 -28 -25 -5 -31 -11
-28 -28 2 -17 10 -22 36 -23 31 -1 32 0 32 41 0 30 -5 45 -16 49 -21 8 -26 7
-44 -4z m48 -57 c-4 -23 -48 -31 -48 -10 0 9 6 18 13 20 25 11 38 7 35 -10z"/>
<path d="M8742 5805 c1 -43 2 -45 5 -13 3 23 12 43 24 52 20 14 20 14 -5 12
-25 -1 -26 -4 -24 -51z"/>
<path d="M15300 5730 c0 -5 5 -10 10 -10 6 0 10 5 10 10 0 6 -4 10 -10 10 -5
0 -10 -4 -10 -10z"/>
<path d="M16090 5730 c0 -5 5 -10 10 -10 6 0 10 5 10 10 0 6 -4 10 -10 10 -5
0 -10 -4 -10 -10z"/>
<path d="M14960 5696 c0 -19 -6 -37 -12 -39 -10 -4 -10 -8 -2 -14 7 -4 14 -19
17 -33 4 -25 4 -25 6 3 1 35 34 37 57 2 20 -30 31 -26 14 4 -9 18 -8 21 12 21
15 0 27 -9 33 -22 11 -26 65 -33 73 -10 3 11 0 11 -16 1 -17 -10 -23 -10 -36
0 -28 24 -17 31 44 31 55 0 60 -2 66 -25 3 -14 10 -25 15 -25 5 0 11 11 15 25
4 18 13 25 30 25 19 0 24 -5 24 -25 0 -14 5 -25 10 -25 6 0 10 11 10 25 0 31
22 33 35 3 11 -26 65 -33 73 -10 3 11 0 11 -16 1 -17 -10 -23 -10 -36 0 -28
23 -17 31 43 31 54 0 59 -2 65 -25 4 -14 10 -25 15 -25 5 0 12 11 15 25 8 30
33 33 38 5 4 -29 22 -30 26 -2 3 20 9 22 58 22 51 0 54 -1 54 -25 0 -23 3 -25
43 -24 l42 2 -35 6 c-22 4 -36 12 -38 24 -3 14 5 17 52 17 52 0 55 -1 59 -27
l4 -28 2 28 c1 22 6 27 25 27 19 0 26 -6 29 -27 l4 -28 2 28 c1 22 6 27 26 27
20 0 25 -5 25 -25 0 -14 5 -25 10 -25 6 0 10 11 10 25 0 32 27 34 32 3 2 -19
9 -23 41 -23 32 -1 37 2 37 22 0 14 6 23 15 23 9 0 15 -9 15 -25 0 -14 5 -25
10 -25 6 0 10 11 10 25 0 34 28 32 33 -2 l4 -28 2 28 c1 25 4 27 45 27 47 0
66 -14 47 -33 -9 -9 -16 -8 -31 1 -27 16 -35 15 -20 -4 20 -23 64 -14 68 14 3
18 10 22 40 22 29 0 39 -5 47 -22 8 -19 18 -23 56 -24 43 -1 45 1 41 23 -2 13
1 23 7 23 6 0 11 5 11 10 0 6 -16 10 -37 10 -35 0 -36 0 -18 20 9 10 15 26 12
35 -8 18 -56 20 -58 3 -2 -18 -1 -21 6 -40 6 -16 -1 -18 -79 -18 -52 0 -86 4
-86 10 0 17 29 23 45 10 10 -8 15 -9 15 -1 0 13 -45 26 -59 16 -6 -3 -11 -13
-11 -21 0 -8 -9 -14 -19 -14 -15 0 -21 8 -24 38 l-4 37 -1 -37 c-1 -26 -7 -38
-17 -38 -8 0 -15 9 -15 20 0 11 -4 20 -10 20 -5 0 -10 -9 -10 -20 0 -11 -6
-20 -13 -20 -7 0 -18 9 -25 20 -14 24 -45 26 -62 5 -15 -18 1 -20 18 -3 10 10
16 8 29 -5 16 -16 14 -17 -34 -17 -39 0 -54 4 -62 18 -7 13 -23 17 -70 17 -53
0 -61 -2 -61 -19 0 -15 -5 -17 -31 -12 -17 3 -42 6 -55 6 -19 0 -24 5 -24 24
0 21 5 25 38 29 l37 4 -42 1 c-43 2 -43 2 -43 -33 l0 -35 -49 0 c-46 0 -49 2
-45 23 l5 22 -12 -22 c-15 -28 -36 -30 -44 -3 -3 11 -11 20 -16 20 -5 0 -9 -9
-9 -20 0 -13 -7 -20 -20 -20 -11 0 -20 6 -20 14 0 8 -5 18 -11 22 -8 4 -9 0
-4 -15 8 -27 -14 -28 -38 -1 -9 11 -26 20 -37 20 -11 0 -25 -9 -32 -20 -7 -11
-18 -20 -25 -20 -7 0 -13 9 -13 20 0 11 -4 20 -10 20 -5 0 -10 -9 -10 -20 0
-12 -7 -20 -16 -20 -11 0 -15 6 -11 20 3 11 2 20 -3 20 -4 0 -10 -9 -13 -20
-7 -27 -41 -25 -56 3 l-12 22 5 -22 c5 -29 -14 -30 -37 -3 -9 11 -26 20 -37
20 -11 0 -25 -9 -32 -20 -17 -27 -48 -27 -41 0 8 29 -14 50 -53 50 -32 0 -34
-2 -34 -34z m70 9 c17 -20 -3 -45 -36 -45 -20 0 -24 5 -24 30 0 25 4 30 24 30
13 0 29 -7 36 -15z m1373 8 c9 -9 -13 -34 -24 -27 -14 8 -11 34 4 34 8 0 17
-3 20 -7z m-1269 -29 c27 -10 18 -24 -15 -24 -27 0 -30 2 -19 15 14 17 13 17
34 9z m270 0 c27 -10 18 -24 -15 -24 -27 0 -30 2 -19 15 14 17 13 17 34 9z
m464 -12 c2 -7 -7 -12 -22 -12 -27 0 -35 15 -13 23 17 7 30 3 35 -11z m60 0
c2 -7 -7 -12 -23 -12 -24 0 -26 2 -15 15 14 17 31 16 38 -3z m-688 -42 c0 -5
-4 -10 -10 -10 -5 0 -10 5 -10 10 0 6 5 10 10 10 6 0 10 -4 10 -10z m270 6 c0
-3 -4 -8 -10 -11 -5 -3 -10 -1 -10 4 0 6 5 11 10 11 6 0 10 -2 10 -4z m538 -8
c-7 -21 -36 -34 -49 -21 -6 6 -8 16 -5 22 10 15 59 14 54 -1z m357 -8 c0 -22
-39 -19 -43 3 -3 15 1 18 20 15 12 -2 23 -10 23 -18z"/>
<path d="M14646 5594 c-12 -11 -16 -35 -16 -84 0 -49 4 -73 16 -84 11 -12 35
-16 84 -16 90 0 100 10 100 100 0 90 -10 100 -100 100 -49 0 -73 -4 -84 -16z
m114 -89 c-50 -51 -59 -53 -85 -25 -14 16 -15 20 -4 20 8 0 20 -5 27 -12 10
-10 20 -4 50 25 20 20 41 37 46 37 6 0 -10 -20 -34 -45z"/>
<path d="M17585 5583 c-51 -12 -34 -23 38 -23 81 0 103 13 40 24 -41 6 -48 6
-78 -1z"/>
<path d="M17566 5542 c-3 -5 -2 -34 1 -66 l6 -57 56 3 56 3 3 63 3 62 -60 0
c-33 0 -62 -4 -65 -8z"/>
<path d="M14960 5396 c0 -19 -6 -37 -12 -39 -10 -4 -10 -8 -2 -14 7 -4 14 -19
17 -33 4 -25 4 -25 6 3 1 34 24 35 39 1 12 -26 32 -25 32 2 0 8 -4 13 -9 9 -5
-3 -12 -1 -15 4 -3 5 10 9 28 9 30 0 35 -4 39 -26 l4 -27 2 28 c1 34 32 37 46
5 11 -26 65 -33 73 -10 3 11 0 11 -16 1 -17 -10 -23 -10 -36 0 -29 25 -16 31
63 31 79 0 105 -10 82 -33 -9 -9 -16 -8 -31 1 -27 16 -35 15 -20 -4 20 -23 64
-14 68 14 3 18 10 22 42 22 42 0 59 -15 41 -33 -9 -9 -17 -8 -32 2 -18 10 -20
10 -17 -1 6 -18 46 -22 64 -7 8 7 13 18 10 26 -3 7 1 13 9 13 7 0 15 -10 17
-22 3 -20 10 -23 46 -24 38 -2 42 0 42 22 0 31 9 30 36 -3 20 -25 25 -27 44
-15 20 12 21 11 18 -10 -2 -19 -9 -23 -35 -22 -18 1 -30 -2 -27 -7 3 -5 18 -9
34 -9 32 0 50 23 50 64 0 32 22 34 35 4 11 -26 65 -33 73 -10 3 11 0 11 -16 1
-17 -10 -23 -10 -36 0 -29 25 -16 31 63 31 79 0 105 -10 82 -33 -9 -9 -16 -8
-31 1 -27 16 -35 15 -20 -3 13 -16 56 -21 63 -7 2 4 7 19 11 35 6 26 5 27 -29
27 -19 0 -35 5 -35 10 0 17 29 23 45 10 10 -8 15 -9 15 -1 0 13 -45 26 -59 16
-6 -3 -11 -13 -11 -21 0 -20 -23 -17 -43 6 -9 11 -26 20 -37 20 -11 0 -25 -9
-32 -20 -16 -25 -38 -26 -38 -2 0 26 -67 27 -83 1 -16 -25 -43 -24 -50 2 -4
16 -12 20 -33 17 -15 -2 -30 -10 -32 -18 -5 -13 -3 -13 11 -1 18 14 47 9 47
-9 0 -6 -32 -10 -80 -10 -44 0 -80 4 -80 9 0 15 32 22 46 10 9 -8 14 -8 14 -1
0 17 -19 24 -46 18 -13 -4 -24 -13 -24 -21 0 -11 -12 -15 -45 -15 -25 0 -45 5
-45 10 0 17 29 23 45 10 10 -8 15 -9 15 -1 0 13 -45 26 -59 16 -6 -3 -11 -13
-11 -21 0 -20 -23 -17 -43 6 -9 11 -26 20 -37 20 -11 0 -25 -9 -32 -20 -7 -11
-21 -20 -30 -20 -14 0 -18 8 -18 35 0 19 -4 35 -9 35 -5 0 -15 -16 -21 -35 -9
-27 -17 -35 -35 -35 -18 0 -27 8 -36 35 -16 44 -29 45 -29 1z m24 -21 c3 -8 1
-15 -4 -15 -6 0 -10 7 -10 15 0 8 2 15 4 15 2 0 6 -7 10 -15z m96 0 c0 -8 -4
-15 -10 -15 -5 0 -7 7 -4 15 4 8 8 15 10 15 2 0 4 -7 4 -15z m104 9 c27 -10
18 -24 -15 -24 -27 0 -30 2 -19 15 14 17 13 17 34 9z m446 -9 c11 -13 8 -15
-20 -15 -28 0 -31 2 -20 15 7 8 16 15 20 15 4 0 13 -7 20 -15z m114 9 c27 -10
18 -24 -15 -24 -27 0 -30 2 -19 15 14 17 13 17 34 9z m-226 -61 c-4 -20 -35
-30 -50 -15 -15 15 0 32 28 32 19 0 25 -5 22 -17z m120 5 c-3 -7 -15 -13 -28
-13 -13 0 -25 6 -27 13 -3 8 6 12 27 12 21 0 30 -4 28 -12z"/>
<path d="M9452 5137 c-23 -24 -40 -46 -37 -49 5 -4 95 79 95 88 0 13 -21 -2
-58 -39z"/>
<path d="M12225 5155 c-25 -24 -25 -25 -25 -225 0 -270 -20 -250 250 -250 270
0 250 -20 250 250 0 270 20 250 -250 250 -200 0 -201 0 -225 -25z m205 -226
c0 -37 -4 -58 -10 -54 -5 3 -10 31 -10 61 0 30 5 54 10 54 6 0 10 -27 10 -61z
m50 1 c0 -33 -4 -60 -10 -60 -6 0 -10 27 -10 60 0 33 4 60 10 60 6 0 10 -27
10 -60z"/>
<path d="M9477 5112 c-23 -25 -10 -35 14 -11 10 10 19 21 19 24 0 11 -18 4
-33 -13z"/>
<path d="M14972 5074 c-26 -18 -28 -39 -4 -53 15 -9 15 -10 -5 -11 -13 0 -23
-4 -23 -10 0 -5 23 -10 50 -10 51 0 60 -6 38 -28 -17 -17 -38 -15 -60 5 -10 9
-18 11 -18 6 0 -38 79 -43 95 -5 5 12 14 22 20 22 6 0 15 -10 20 -22 11 -26
65 -33 73 -10 3 11 0 11 -16 1 -17 -10 -23 -10 -36 0 -27 23 -18 31 34 31 47
0 50 -2 50 -25 0 -14 5 -25 10 -25 6 0 10 11 10 25 0 20 5 25 25 25 20 0 25
-5 25 -25 0 -14 5 -25 10 -25 6 0 10 11 10 25 0 31 22 33 35 3 11 -26 65 -33
73 -10 3 11 0 11 -16 1 -17 -10 -23 -10 -36 0 -27 23 -18 31 32 31 42 0 50 -3
60 -25 10 -21 18 -25 47 -23 29 2 35 6 35 25 0 30 32 31 45 1 7 -17 19 -23 43
-23 27 -1 32 3 32 22 0 35 37 31 43 -4 l4 -28 2 28 c1 31 26 37 36 8 3 -11 15
-23 26 -26 24 -8 59 3 59 18 0 8 -3 8 -12 -1 -18 -18 -46 -14 -58 8 -10 19 -8
20 74 20 l85 0 4 -27 4 -28 2 28 c1 22 6 27 25 27 19 0 26 -6 29 -27 l4 -28 2
28 c1 22 6 27 26 27 20 0 25 -5 25 -25 0 -14 5 -25 10 -25 6 0 10 11 10 25 0
31 22 33 35 3 11 -26 65 -33 73 -10 3 11 0 11 -16 1 -17 -10 -23 -10 -36 0
-27 23 -18 31 33 31 41 0 51 -4 56 -20 10 -33 85 -41 85 -9 0 8 -4 8 -15 -1
-17 -14 -55 -4 -55 16 0 10 14 14 54 14 49 0 55 -2 58 -22 2 -14 11 -24 23
-26 18 -2 18 -2 3 8 -29 18 -22 40 11 40 25 0 30 -5 34 -27 l4 -28 2 28 c1 35
31 38 31 2 0 -14 5 -25 10 -25 6 0 10 11 10 25 0 20 5 25 25 25 20 0 25 -5 25
-25 0 -14 5 -25 10 -25 6 0 10 11 10 25 0 16 6 25 15 25 8 0 15 -7 15 -15 0
-22 36 -38 60 -25 16 8 20 8 20 -3 0 -24 -28 -40 -56 -33 -17 5 -23 3 -19 -4
9 -14 58 -13 73 2 7 7 12 27 12 45 l0 34 65 -2 c36 -1 65 -6 65 -11 0 -5 -4
-6 -10 -3 -5 3 -10 -3 -10 -14 0 -29 18 -26 26 4 3 14 12 25 19 25 7 0 16 -11
19 -25 4 -14 10 -25 15 -25 5 0 12 11 15 25 4 16 13 25 26 25 15 0 20 -7 20
-25 0 -14 5 -25 10 -25 6 0 10 11 10 25 0 33 37 35 42 3 2 -14 11 -24 23 -26
18 -2 18 -2 3 8 -29 18 -22 40 11 40 25 0 30 -5 34 -27 l4 -28 2 28 c1 23 5
27 31 27 26 0 30 -4 31 -27 1 -26 2 -25 9 7 13 54 -32 107 -57 68 -5 -9 -10
-3 -14 17 -6 29 -7 29 -8 -7 -1 -35 -3 -38 -31 -38 -33 0 -39 14 -12 29 16 10
16 10 0 11 -10 0 -18 5 -18 10 0 6 -6 5 -14 -2 -9 -8 -11 -17 -5 -23 15 -15
10 -25 -11 -25 -13 0 -20 7 -20 20 0 11 -4 20 -10 20 -5 0 -10 -9 -10 -20 0
-12 -7 -20 -16 -20 -11 0 -15 6 -11 20 3 11 2 20 -3 20 -4 0 -10 -9 -13 -20
-7 -26 -33 -26 -40 1 -6 23 -27 17 -27 -7 0 -21 -31 -17 -37 6 -3 11 -9 20
-13 20 -5 0 -6 -9 -3 -20 5 -18 0 -20 -41 -20 -37 0 -46 3 -46 18 0 26 -66 28
-82 2 -16 -25 -34 -26 -48 0 -14 27 -80 26 -80 -2 0 -26 -28 -22 -33 5 l-4 22
-2 -22 c-1 -19 -7 -23 -31 -23 -33 0 -39 14 -12 29 16 10 16 10 0 11 -10 0
-18 5 -18 10 0 6 -6 5 -14 -2 -9 -8 -11 -17 -5 -22 14 -15 11 -26 -9 -26 -9 0
-23 9 -30 20 -7 11 -21 20 -32 20 -11 0 -25 -9 -32 -20 -7 -11 -17 -20 -23
-20 -6 0 -18 9 -28 20 -9 11 -26 20 -37 20 -11 0 -25 -9 -32 -20 -16 -26 -26
-25 -48 3 -16 19 -22 20 -39 10 -12 -8 -22 -9 -26 -3 -3 5 -19 8 -35 7 -21 -1
-30 -7 -30 -19 0 -27 -81 -25 -98 2 -7 11 -21 20 -32 20 -11 0 -28 -9 -37 -20
-26 -30 -41 -24 -46 18 l-4 37 -1 -37 c-2 -30 -6 -38 -21 -38 -12 0 -21 8 -24
23 l-4 22 -2 -22 c-1 -18 -7 -23 -30 -23 -23 0 -31 5 -34 23 l-4 22 -2 -22
c-1 -16 -7 -23 -21 -23 -16 0 -20 7 -21 38 -1 36 -2 36 -8 7 -4 -20 -9 -26
-14 -17 -12 18 -34 15 -57 -10 l-20 -22 -20 22 c-26 27 -56 28 -72 2 -16 -26
-34 -25 -49 1 -8 15 -18 20 -35 16 -18 -3 -24 0 -24 14 0 11 -4 19 -10 19 -5
0 -10 -16 -10 -35 l0 -35 -52 0 c-48 0 -51 1 -36 16 12 13 20 14 37 5 13 -8
21 -8 21 -2 0 6 -12 14 -27 17 -20 5 -30 2 -44 -14 -19 -25 -41 -27 -88 -11
-43 15 -44 49 -1 49 17 0 30 -4 30 -10 0 -5 6 -10 13 -10 12 1 -29 40 -42 40
-4 0 -17 -7 -29 -16z m286 -52 c2 -7 -7 -12 -22 -12 -27 0 -35 15 -13 23 17 7
30 3 35 -11z m106 12 c27 -10 18 -24 -15 -24 -27 0 -30 2 -19 15 14 17 13 17
34 9z m126 -9 c11 -13 8 -15 -19 -15 -31 0 -42 14 -18 23 20 9 24 8 37 -8z
m290 0 c11 -13 8 -15 -19 -15 -31 0 -42 14 -18 23 20 9 24 8 37 -8z m168 -3
c2 -7 -7 -12 -23 -12 -24 0 -26 2 -15 15 14 17 31 16 38 -3z m60 0 c2 -7 -7
-12 -23 -12 -24 0 -26 2 -15 15 14 17 31 16 38 -3z m106 12 c27 -10 18 -24
-15 -24 -27 0 -30 2 -19 15 14 17 13 17 34 9z m126 -9 c11 -13 8 -15 -19 -15
-31 0 -42 14 -18 23 20 9 24 8 37 -8z m238 -3 c2 -7 -7 -12 -22 -12 -27 0 -35
15 -13 23 17 7 30 3 35 -11z m106 12 c27 -10 18 -24 -15 -24 -27 0 -30 2 -19
15 14 17 13 17 34 9z m476 -9 c11 -13 8 -15 -20 -15 -28 0 -31 2 -20 15 7 8
16 15 20 15 4 0 13 -7 20 -15z m-1560 -43 c0 -12 -23 -32 -37 -32 -7 0 -17 9
-23 20 -10 18 -8 20 25 20 19 0 35 -4 35 -8z m120 -1 c0 -5 -7 -14 -15 -21
-12 -10 -18 -10 -30 0 -23 19 -18 30 15 30 17 0 30 -4 30 -9z m983 -7 c-7 -18
-54 -16 -61 4 -2 8 8 12 32 12 28 0 34 -3 29 -16z m217 12 c0 -3 -4 -8 -10
-11 -5 -3 -10 -1 -10 4 0 6 5 11 10 11 6 0 10 -2 10 -4z"/>
<path d="M16365 5080 c-3 -5 -1 -10 4 -10 6 0 11 5 11 10 0 6 -2 10 -4 10 -3
0 -8 -4 -11 -10z"/>
<path d="M16870 5080 c0 -5 5 -10 10 -10 6 0 10 5 10 10 0 6 -4 10 -10 10 -5
0 -10 -4 -10 -10z"/>
<path d="M11788 5003 c6 -2 18 -2 25 0 6 3 1 5 -13 5 -14 0 -19 -2 -12 -5z"/>
<path d="M13125 4950 c-42 -43 -56 -48 -75 -25 -7 8 -17 15 -24 15 -6 0 4 -15
22 -32 l32 -33 46 47 c26 25 45 51 43 57 -3 7 -22 -6 -44 -29z"/>
<path d="M11750 4960 c-20 -20 -26 -40 -12 -40 4 0 12 10 17 23 15 33 59 35
80 3 10 -15 14 -33 10 -45 -7 -23 -45 -37 -72 -27 -15 6 -15 8 -3 16 11 7 8
10 -12 10 -24 0 -28 -4 -28 -27 0 -20 3 -24 11 -16 8 8 18 8 36 0 19 -8 28 -7
51 10 33 24 39 56 18 89 -20 30 -68 32 -96 4z"/>
<path d="M14646 4944 c-12 -11 -16 -35 -16 -84 0 -90 10 -100 100 -100 90 0
100 10 100 100 0 90 -10 100 -100 100 -49 0 -73 -4 -84 -16z m114 -89 c-50
-51 -59 -53 -85 -25 -14 16 -15 20 -4 20 8 0 20 -5 27 -12 10 -10 20 -4 50 25
20 20 41 37 46 37 6 0 -10 -20 -34 -45z"/>
<path d="M11792 4930 c0 -14 2 -19 5 -12 2 6 2 18 0 25 -3 6 -5 1 -5 -13z"/>
<path d="M17585 4933 c-51 -12 -34 -23 38 -23 81 0 103 13 40 24 -41 6 -48 6
-78 -1z"/>
<path d="M17566 4892 c-3 -5 -2 -34 1 -66 l6 -57 56 3 56 3 3 63 3 62 -60 0
c-33 0 -62 -4 -65 -8z"/>
<path d="M15734 4745 l-14 -35 -68 0 -67 1 24 19 23 20 -26 -2 c-17 -2 -26 -8
-26 -20 0 -24 -32 -23 -48 2 -7 11 -21 20 -32 20 -11 0 -25 -9 -32 -20 -16
-26 -44 -26 -51 0 -4 16 -12 20 -41 18 -27 -2 -36 -8 -36 -20 0 -12 -8 -18
-25 -18 -16 0 -25 6 -25 15 0 8 5 15 10 15 7 0 6 5 -2 13 -9 10 -16 11 -24 3
-8 -7 -9 -15 -3 -21 18 -18 8 -25 -33 -25 l-43 1 22 18 23 19 -25 -2 c-17 -1
-25 -7 -25 -18 0 -26 -36 -23 -43 3 -4 16 -12 20 -33 17 -15 -2 -30 -10 -32
-18 -5 -13 -3 -13 11 -1 18 14 47 9 47 -9 0 -5 -21 -10 -48 -10 -36 0 -50 5
-59 20 -9 14 -23 19 -47 18 -39 -1 -44 -13 -38 -95 4 -52 22 -76 22 -29 0 19
4 22 24 19 18 -4 29 2 41 21 21 32 33 33 37 4 3 -20 10 -23 46 -24 38 -2 42 0
42 22 0 34 28 31 33 -3 l4 -28 2 28 c1 25 4 27 40 27 33 0 40 -4 43 -22 2 -12
10 -23 18 -26 12 -4 13 -2 3 9 -20 21 -15 39 11 39 19 0 26 -6 29 -27 l4 -28
2 28 c1 23 5 27 30 27 25 0 30 -5 34 -27 l4 -28 2 28 c1 32 26 37 36 7 10 -33
85 -41 85 -9 0 8 -4 8 -15 -1 -17 -14 -55 -4 -55 16 0 10 14 14 54 14 52 0 55
-1 59 -27 l4 -28 2 28 c1 26 2 27 62 27 61 0 61 0 55 -26 -5 -17 -3 -23 4 -19
5 3 10 13 10 21 0 24 67 19 75 -6 3 -11 11 -20 16 -20 6 0 5 9 -2 22 -9 16 -9
23 0 26 16 5 14 22 -3 22 -8 0 -20 16 -27 35 -7 19 -17 35 -22 35 -4 0 -15
-16 -23 -35z m39 -15 c4 -15 0 -20 -14 -20 -20 0 -23 8 -13 34 7 20 20 13 27
-14z m-753 -5 c11 -13 8 -15 -19 -15 -31 0 -42 14 -18 23 20 9 24 8 37 -8z
m374 9 c25 -9 19 -24 -9 -24 -24 0 -32 10 -18 23 8 8 8 8 27 1z m126 -9 c11
-13 8 -15 -19 -15 -31 0 -42 14 -18 23 20 9 24 8 37 -8z m-490 -44 c0 -15 -29
-33 -45 -27 -28 10 -17 36 15 36 17 0 30 -4 30 -9z m108 -8 c-4 -20 -35 -30
-50 -15 -15 15 0 32 28 32 19 0 25 -5 22 -17z"/>
<path d="M14655 4385 c-25 -24 -25 -25 -25 -225 0 -200 0 -201 25 -225 l24
-25 1591 0 1591 0 24 25 c25 24 25 25 25 225 0 200 0 201 -25 225 l-24 25
-1591 0 -1591 0 -24 -25z m1351 -232 c17 -48 20 -63 10 -63 -8 0 -16 7 -20 15
-7 20 -46 19 -62 -2 -24 -34 -26 -5 -3 57 15 41 27 60 37 58 8 -2 25 -31 38
-65z m124 2 l0 -65 -40 0 c-33 0 -42 4 -52 25 -16 36 3 75 37 75 16 0 25 6 25
15 0 8 7 15 15 15 12 0 15 -14 15 -65z m110 0 l0 -65 -40 0 c-33 0 -42 4 -52
25 -16 36 3 75 37 75 16 0 25 6 25 15 0 8 7 15 15 15 12 0 15 -14 15 -65z
m340 28 l0 -36 25 23 c29 27 47 20 21 -8 -15 -18 -15 -21 5 -45 25 -33 6 -37
-28 -5 l-23 21 0 -21 c0 -12 -4 -22 -10 -22 -6 0 -10 28 -10 65 0 37 4 65 10
65 6 0 10 -17 10 -37z m-242 10 c12 -12 13 -18 4 -21 -16 -5 -16 -59 1 -65 6
-2 9 -8 5 -12 -16 -17 -38 5 -38 39 0 19 -5 36 -12 38 -9 3 -8 9 2 21 19 20
18 20 38 0z m100 -15 c7 -7 12 -29 12 -50 0 -38 0 -38 -40 -38 -27 0 -43 5
-46 15 -8 20 13 45 37 45 11 0 19 5 19 11 0 7 -10 9 -25 5 -24 -6 -33 3 -18
17 11 11 48 8 61 -5z m100 -6 c3 -9 -3 -11 -22 -6 -16 4 -26 2 -26 -5 0 -6 8
-11 19 -11 29 0 47 -26 31 -46 -16 -18 -71 -15 -78 5 -3 10 3 11 27 6 20 -4
31 -3 31 4 0 6 -8 11 -19 11 -29 0 -47 26 -31 46 15 17 61 15 68 -4z"/>
<path d="M15956 4164 c-9 -22 -8 -24 9 -24 8 0 15 6 15 14 0 22 -17 28 -24 10z"/>
<path d="M16060 4141 c0 -25 4 -31 21 -31 16 0 20 5 17 27 -2 17 -10 29 -20
31 -14 3 -18 -3 -18 -27z"/>
<path d="M16170 4141 c0 -25 4 -31 21 -31 16 0 20 5 17 27 -2 17 -10 29 -20
31 -14 3 -18 -3 -18 -27z"/>
<path d="M16390 4120 c0 -5 7 -10 15 -10 8 0 15 5 15 10 0 6 -7 10 -15 10 -8
0 -15 -4 -15 -10z"/>
<path d="M10445 4017 c14 -24 25 -56 25 -70 0 -17 5 -27 15 -27 10 0 15 10 15
30 0 16 9 44 20 62 23 39 25 48 7 48 -7 0 -20 -15 -29 -32 l-15 -33 -17 33
c-9 17 -23 32 -32 32 -12 0 -9 -9 11 -43z"/>
<path d="M11000 3991 l0 -69 38 0 c47 0 62 12 62 53 0 38 -21 60 -50 52 -15
-4 -20 0 -20 14 0 10 -7 19 -15 19 -12 0 -15 -14 -15 -69z m68 -10 c5 -34 -16
-51 -33 -27 -10 14 -11 24 -4 38 13 24 33 18 37 -11z"/>
<path d="M10798 4038 c-3 -7 -2 -35 1 -63 5 -42 10 -51 29 -53 12 -2 22 1 22
7 0 6 -4 11 -10 11 -15 0 -12 68 2 72 9 3 8 9 -4 21 -20 20 -34 22 -40 5z"/>
<path d="M10553 4004 c-15 -24 -15 -29 -2 -53 11 -19 23 -26 44 -26 21 0 33 7
44 26 13 24 13 29 -2 53 -11 16 -27 26 -42 26 -15 0 -31 -10 -42 -26z m62 -29
c0 -23 -4 -30 -20 -30 -21 0 -31 25 -21 51 11 28 41 12 41 -21z"/>
<path d="M10670 3986 c0 -53 21 -77 51 -58 11 7 19 8 19 2 0 -5 7 -10 15 -10
12 0 15 13 15 55 0 41 -4 55 -14 55 -10 0 -16 -14 -18 -42 -2 -30 -8 -43 -18
-43 -10 0 -16 13 -18 43 -2 28 -8 42 -18 42 -10 0 -14 -12 -14 -44z"/>
<path d="M10870 3986 c0 -52 12 -64 63 -64 l37 0 0 54 c0 40 -4 54 -14 54 -10
0 -16 -14 -18 -42 -2 -30 -8 -43 -18 -43 -10 0 -16 13 -18 43 -2 28 -8 42 -18
42 -10 0 -14 -12 -14 -44z"/>
<path d="M11136 4014 c-19 -18 -21 -65 -4 -82 17 -17 63 -15 79 4 11 14 9 15
-24 9 -30 -6 -37 -4 -37 9 0 12 9 16 35 16 24 0 35 5 35 14 0 20 -28 46 -50
46 -10 0 -26 -7 -34 -16z m52 -22 c2 -7 -6 -12 -17 -12 -21 0 -27 11 -14 24 9
9 26 2 31 -12z"/>
<path d="M13780 3990 c0 -6 37 -10 90 -10 53 0 90 4 90 10 0 6 -37 10 -90 10
-53 0 -90 -4 -90 -10z"/>
<path d="M3290 3820 c0 -54 3 -70 14 -70 10 0 16 14 18 43 l3 42 29 -42 c43
-64 56 -57 56 27 0 54 -3 70 -14 70 -10 0 -16 -14 -18 -42 l-3 -43 -29 43
c-43 63 -56 56 -56 -28z"/>
<path d="M5660 3883 c0 -4 12 -20 27 -35 l27 -28 -29 -30 c-37 -39 -24 -52 15
-15 l30 29 30 -29 c39 -37 52 -24 15 15 l-29 30 29 30 c37 39 24 52 -15 15
l-30 -29 -28 27 c-28 27 -42 33 -42 20z"/>
<path d="M3561 3864 c-10 -12 -10 -19 -2 -27 6 -6 11 -26 11 -44 0 -21 6 -36
15 -40 21 -7 32 4 17 19 -16 16 -15 65 0 70 9 3 8 9 -4 21 -20 20 -19 20 -37
1z"/>
<path d="M3446 3844 c-34 -33 -9 -94 38 -94 31 0 46 19 46 57 0 48 -51 71 -84
37z m54 -19 c16 -19 3 -57 -18 -53 -18 3 -27 30 -18 54 7 18 20 18 36 -1z"/>
<path d="M3646 3844 c-34 -33 -9 -94 38 -94 13 0 29 7 36 15 11 13 8 15 -20
13 -19 -2 -35 2 -37 10 -3 8 7 12 31 12 25 0 36 5 36 14 0 20 -28 46 -50 46
-10 0 -26 -7 -34 -16z m54 -19 c0 -8 -9 -15 -20 -15 -20 0 -26 11 -13 23 12
13 33 7 33 -8z"/>
<path d="M13605 3715 c-25 -24 -25 -25 -25 -225 0 -270 -20 -250 250 -250 270
0 250 -20 250 250 0 270 20 250 -250 250 -200 0 -201 0 -225 -25z m249 -109
c65 -27 92 -90 64 -151 -10 -22 -8 -29 15 -53 35 -37 22 -50 -15 -15 -24 23
-31 25 -53 15 -39 -18 -79 -14 -110 10 -77 60 -59 171 31 198 16 4 30 9 32 9
1 1 17 -5 36 -13z"/>
<path d="M13759 3561 c-57 -58 -23 -141 59 -141 51 0 82 32 82 84 0 80 -84
114 -141 57z"/>
<path d="M11095 3558 c-16 -49 -37 -139 -33 -143 2 -2 14 31 25 75 12 44 19
80 17 80 -3 0 -6 -6 -9 -12z"/>
<path d="M11146 3519 c-17 -59 -29 -120 -21 -104 10 19 44 150 40 153 -2 2
-11 -20 -19 -49z"/>
<path d="M12745 3503 c-10 -38 -20 -75 -23 -83 -3 -8 -2 -12 2 -9 9 9 49 150
43 155 -2 2 -12 -26 -22 -63z"/>
<path d="M10593 3495 c0 -59 1 -63 6 -25 5 36 10 45 26 45 16 0 21 -9 26 -45
l6 -45 1 47 c2 39 -1 48 -18 53 -11 3 -24 4 -29 0 -5 -3 -12 5 -14 17 -2 13
-4 -8 -4 -47z"/>
<path d="M12121 3500 c-1 -64 0 -66 25 -68 35 -3 54 14 54 48 0 33 -22 54 -49
45 -15 -4 -21 -1 -24 17 -2 13 -5 -6 -6 -42z m63 -3 c14 -22 -4 -52 -30 -52
-23 0 -31 39 -13 61 14 17 28 14 43 -9z"/>
<path d="M13193 3495 c0 -38 2 -53 4 -33 8 70 53 76 53 7 0 -21 5 -39 10 -39
13 0 13 56 -1 82 -8 14 -17 18 -34 14 -19 -5 -24 -2 -28 16 -2 13 -4 -8 -4
-47z"/>
<path d="M13295 3549 c-11 -17 1 -21 15 -4 8 9 8 15 2 15 -6 0 -14 -5 -17 -11z"/>
<path d="M10693 3535 c-6 -7 -8 -16 -3 -21 5 -5 10 -24 12 -43 2 -19 9 -36 16
-37 7 -1 8 0 2 3 -12 6 -13 80 -1 85 5 2 4 8 -3 14 -8 8 -15 7 -23 -1z"/>
<path d="M10758 3539 c-8 -25 8 -103 22 -107 12 -4 13 -2 3 9 -15 15 -17 76
-4 81 5 2 3 8 -4 15 -9 8 -15 9 -17 2z"/>
<path d="M11953 3535 c-6 -7 -8 -16 -3 -21 5 -5 10 -24 12 -43 2 -19 9 -36 16
-37 7 -1 8 0 2 3 -12 6 -13 80 -1 85 5 2 4 8 -3 14 -8 8 -15 7 -23 -1z"/>
<path d="M13032 3533 c-7 -7 -8 -13 -3 -13 5 0 11 -19 13 -42 2 -26 9 -43 18
-46 12 -4 13 -2 3 9 -15 15 -17 76 -4 81 5 2 4 8 -3 14 -8 8 -15 7 -24 -3z"/>
<path d="M10821 3461 c1 -36 4 -56 6 -45 3 17 9 20 25 16 14 -3 26 1 34 13 28
39 11 77 -35 80 l-31 2 1 -66z m63 36 c14 -22 -4 -52 -30 -52 -14 0 -20 8 -22
29 -5 44 29 59 52 23z"/>
<path d="M10929 3514 c-11 -14 -10 -18 6 -30 10 -8 25 -14 33 -14 7 0 12 -6 9
-12 -2 -7 -17 -12 -32 -11 -20 2 -25 -1 -18 -8 16 -16 57 -7 61 13 2 11 -6 22
-22 29 -36 17 -35 43 2 35 20 -5 23 -4 12 4 -21 14 -36 12 -51 -6z"/>
<path d="M11196 3483 c20 -67 20 -67 46 7 5 12 7 11 13 -5 21 -61 22 -62 32
-35 6 14 13 39 16 55 5 25 3 24 -12 -10 l-18 -40 -7 32 c-10 45 -25 51 -32 13
-9 -42 -21 -46 -29 -10 -4 16 -10 32 -15 35 -4 3 -2 -16 6 -42z"/>
<path d="M11331 3521 c-1 -21 21 -91 29 -91 4 0 11 16 14 35 8 41 21 38 31 -5
4 -17 10 -30 14 -30 8 0 34 91 27 97 -2 2 -7 -9 -11 -26 -9 -42 -22 -47 -30
-11 -6 28 -25 52 -25 31 0 -5 -5 -22 -11 -38 l-12 -28 -13 40 c-7 22 -13 34
-13 26z"/>
<path d="M11471 3521 c-1 -21 21 -91 29 -91 4 0 11 16 14 35 8 41 21 38 31 -5
4 -17 10 -30 14 -30 8 0 34 91 27 97 -2 2 -7 -9 -11 -26 -9 -42 -22 -47 -30
-11 -6 28 -25 52 -25 31 0 -5 -5 -22 -11 -38 l-12 -28 -13 40 c-7 22 -13 34
-13 26z"/>
<path d="M11661 3478 c19 -50 20 -53 3 -65 -15 -11 -15 -13 -2 -13 15 0 66
115 56 125 -3 3 -11 -14 -18 -37 l-13 -43 -18 43 c-26 60 -33 52 -8 -10z"/>
<path d="M11756 3514 c-35 -35 -9 -92 38 -80 30 7 40 43 20 73 -17 27 -36 29
-58 7z m38 0 c21 -8 21 -63 1 -70 -33 -13 -59 38 -33 64 14 14 12 14 32 6z"/>
<path d="M11854 3485 c1 -49 1 -50 34 -51 l32 -1 -2 51 -1 51 -6 -45 c-5 -36
-10 -45 -26 -45 -16 0 -21 9 -26 45 l-7 45 2 -50z"/>
<path d="M12080 3496 c0 -35 -21 -63 -40 -51 -5 3 -10 22 -10 41 0 19 -4 34
-10 34 -13 0 -13 -50 0 -70 5 -8 23 -15 40 -15 29 -1 30 0 30 47 0 26 -2 48
-5 48 -3 0 -5 -15 -5 -34z"/>
<path d="M12236 3514 c-19 -18 -21 -55 -4 -72 15 -15 55 -16 64 -1 4 8 -1 9
-15 4 -23 -7 -55 11 -45 26 3 5 18 9 35 9 30 0 38 17 17 38 -16 16 -33 15 -52
-4z m38 0 c27 -10 18 -24 -15 -24 -27 0 -30 2 -19 15 14 17 13 17 34 9z"/>
<path d="M12386 3514 c-9 -8 -16 -25 -16 -38 0 -43 45 -62 71 -29 13 15 12 15
-8 3 -18 -11 -24 -12 -37 -1 -37 31 -6 82 36 60 21 -11 22 -11 9 4 -17 21 -35
22 -55 1z"/>
<path d="M12481 3516 c-31 -37 9 -103 47 -80 36 23 23 94 -18 94 -10 0 -23 -6
-29 -14z m49 -10 c6 -8 10 -25 8 -38 -2 -17 -10 -23 -28 -23 -18 0 -26 6 -28
23 -3 22 13 52 28 52 4 0 13 -7 20 -14z"/>
<path d="M12582 3475 l1 -50 6 45 c8 61 35 63 39 3 2 -24 7 -43 12 -43 5 0 10
19 12 43 4 60 31 58 39 -3 l6 -45 1 48 c2 51 -15 70 -42 48 -10 -8 -16 -9 -21
-2 -3 6 -17 10 -30 9 -23 -2 -25 -6 -23 -53z"/>
<path d="M12791 3521 c-1 -21 21 -91 29 -91 4 0 11 16 14 35 8 41 21 38 31 -5
4 -17 10 -30 14 -30 8 0 34 91 27 97 -2 2 -7 -9 -11 -26 -9 -42 -22 -47 -30
-11 -6 28 -25 52 -25 31 0 -5 -5 -22 -11 -38 l-12 -28 -13 40 c-7 22 -13 34
-13 26z"/>
<path d="M12944 3519 c-4 -7 0 -9 14 -5 24 8 41 -12 21 -25 -10 -6 -11 -9 -1
-9 17 0 15 -30 -4 -37 -23 -9 -43 15 -24 28 13 9 13 10 0 6 -8 -2 -15 -12 -15
-23 0 -15 8 -19 38 -21 35 -1 37 1 37 29 0 16 -5 38 -10 49 -12 21 -45 26 -56
8z"/>
<path d="M13106 3514 c-9 -8 -16 -25 -16 -38 0 -43 45 -62 71 -29 13 15 12 15
-8 3 -18 -11 -24 -12 -37 -1 -37 31 -6 82 36 60 21 -11 22 -11 9 4 -17 21 -35
22 -55 1z"/>
<path d="M11600 3440 c0 -5 5 -10 10 -10 6 0 10 5 10 10 0 6 -4 10 -10 10 -5
0 -10 -4 -10 -10z"/>
<path d="M3596 3384 c-9 -8 -16 -31 -16 -49 0 -18 7 -41 16 -49 18 -19 55 -21
72 -4 20 20 13 32 -8 13 -17 -15 -24 -16 -45 -7 -19 9 -25 19 -25 45 0 54 35
74 72 40 20 -18 25 -4 6 15 -17 17 -54 15 -72 -4z"/>
<path d="M4431 3339 c-13 -33 -20 -63 -18 -66 3 -2 8 5 12 16 4 15 15 21 35
21 20 0 31 -6 35 -21 4 -11 9 -19 11 -16 6 6 -37 127 -46 127 -4 0 -17 -27
-29 -61z m39 22 c0 -5 3 -16 6 -25 4 -12 0 -16 -15 -16 -22 0 -25 8 -15 34 7
17 24 22 24 7z"/>
<path d="M3716 3354 c-30 -30 -11 -84 29 -84 29 0 49 32 39 63 -12 39 -42 48
-68 21z m54 -14 c8 -14 8 -26 0 -40 -23 -42 -72 -9 -52 35 14 30 37 32 52 5z"/>
<path d="M3812 3315 c1 -42 2 -44 5 -13 4 39 28 67 43 52 5 -5 10 -27 13 -49
l4 -40 1 42 c1 23 7 45 12 48 18 11 39 -15 43 -53 l4 -37 1 42 c2 51 -7 58
-75 58 l-53 0 2 -50z"/>
<path d="M3962 3305 c0 -38 3 -60 5 -47 3 17 9 21 22 17 32 -10 51 5 51 40 0
41 -24 64 -50 47 -14 -9 -20 -8 -23 1 -3 7 -5 -19 -5 -58z m52 49 c21 -8 21
-63 1 -70 -33 -13 -59 38 -33 64 14 14 12 14 32 6z"/>
<path d="M4083 3363 c-7 -2 -13 -9 -13 -15 0 -6 6 -6 15 2 16 13 45 7 45 -9 0
-5 -14 -12 -31 -16 -24 -5 -29 -11 -27 -28 2 -17 10 -22 36 -23 30 -1 32 1 32
36 0 49 -20 68 -57 53z m45 -60 c-4 -23 -48 -31 -48 -10 0 9 6 18 13 20 25 11
38 7 35 -10z"/>
<path d="M4172 3315 c1 -42 2 -44 5 -13 4 39 28 67 43 52 5 -5 11 -27 13 -49
3 -33 4 -31 3 10 -1 49 -1 50 -33 50 l-33 1 2 -51z"/>
<path d="M4260 3365 c0 -3 7 -22 15 -42 18 -43 19 -70 3 -76 -9 -4 -8 -6 3 -6
10 -1 23 20 37 61 12 33 20 63 18 65 -2 2 -9 -12 -16 -31 -14 -44 -26 -46 -35
-6 -6 25 -25 53 -25 35z"/>
<path d="M3463 3333 c9 -2 23 -2 30 0 6 3 -1 5 -18 5 -16 0 -22 -2 -12 -5z"/>
<path d="M3596 3134 c-9 -8 -16 -31 -16 -49 0 -18 7 -41 16 -49 18 -19 55 -21
72 -4 20 20 13 32 -8 13 -17 -15 -24 -16 -45 -7 -19 9 -25 19 -25 45 0 54 35
74 72 40 20 -18 25 -4 6 15 -17 17 -54 15 -72 -4z"/>
<path d="M4420 3085 c0 -62 1 -65 24 -65 40 0 56 11 56 36 0 13 -5 24 -10 24
-6 0 -5 8 2 19 16 26 -5 51 -43 51 -29 0 -29 0 -29 -65z m65 45 c9 -15 -14
-40 -36 -40 -14 0 -19 7 -19 25 0 20 5 25 24 25 14 0 28 -5 31 -10z m0 -75 c0
-14 -8 -21 -27 -23 -24 -3 -28 0 -28 23 0 23 4 26 28 23 19 -2 27 -9 27 -23z"/>
<path d="M3716 3104 c-30 -30 -11 -84 29 -84 29 0 49 32 39 63 -12 39 -42 48
-68 21z m54 -14 c8 -14 8 -26 0 -40 -23 -42 -72 -9 -52 35 14 30 37 32 52 5z"/>
<path d="M3812 3065 c1 -42 2 -44 5 -13 4 39 28 67 43 52 5 -5 10 -27 13 -49
l4 -40 1 42 c1 23 7 45 12 48 18 11 39 -15 43 -53 l4 -37 1 42 c2 51 -7 58
-75 58 l-53 0 2 -50z"/>
<path d="M3962 3055 c0 -38 3 -60 5 -47 3 17 9 21 22 17 32 -10 51 5 51 40 0
41 -24 64 -50 47 -14 -9 -20 -8 -23 1 -3 7 -5 -19 -5 -58z m52 49 c21 -8 21
-63 1 -70 -33 -13 -59 38 -33 64 14 14 12 14 32 6z"/>
<path d="M4083 3113 c-7 -2 -13 -9 -13 -15 0 -6 6 -6 15 2 16 13 45 7 45 -9 0
-5 -14 -12 -31 -16 -24 -5 -29 -11 -27 -28 2 -17 10 -22 36 -23 30 -1 32 1 32
36 0 49 -20 68 -57 53z m45 -60 c-4 -23 -48 -31 -48 -10 0 9 6 18 13 20 25 11
38 7 35 -10z"/>
<path d="M4172 3065 c1 -42 2 -44 5 -13 4 39 28 67 43 52 5 -5 11 -27 13 -49
3 -33 4 -31 3 10 -1 49 -1 50 -33 50 l-33 1 2 -51z"/>
<path d="M4260 3115 c0 -3 7 -22 15 -42 18 -43 19 -70 3 -76 -9 -4 -8 -6 3 -6
10 -1 23 20 37 61 12 33 20 63 18 65 -2 2 -9 -12 -16 -31 -14 -44 -26 -46 -35
-6 -6 25 -25 53 -25 35z"/>
<path d="M3463 3083 c9 -2 23 -2 30 0 6 3 -1 5 -18 5 -16 0 -22 -2 -12 -5z"/>
<path d="M10420 2095 l0 -935 1875 0 1875 0 0 935 0 935 -645 0 -645 0 1 -37
c1 -38 1 -38 9 -8 l8 30 1 -30 c1 -20 -6 -34 -19 -43 -18 -11 -20 -10 -20 8 0
18 -20 30 -20 13 0 -5 -18 -33 -40 -63 l-40 -55 0 58 c0 34 4 56 9 52 12 -7
30 25 24 42 -2 6 1 15 8 19 8 5 9 3 4 -6 -5 -9 -4 -11 3 -6 16 10 15 26 -2 26
-8 0 -23 -16 -35 -36 -16 -27 -21 -52 -21 -111 l0 -76 20 23 c37 42 30 15 -13
-50 l-42 -63 3 -135 4 -134 -44 8 c-58 12 -278 6 -295 -7 -16 -14 -43 -4 -43
16 0 8 -4 15 -10 15 -5 0 -10 10 -9 23 l0 22 9 -22 c10 -24 53 -32 65 -13 4 6
-5 10 -20 10 -14 0 -28 7 -31 15 -4 8 -17 15 -29 15 -13 0 -27 5 -30 10 -12
20 -24 10 -16 -12 5 -13 13 -23 19 -23 6 0 13 -3 17 -7 4 -3 -1 -5 -11 -4 -10
2 -25 15 -34 31 -9 16 -24 29 -34 31 -10 1 -20 5 -23 8 -3 3 30 3 73 0 57 -4
75 -3 64 5 -8 6 -31 11 -50 12 -27 2 -22 4 20 9 47 6 40 7 -47 8 -83 2 -103
-1 -103 -12 0 -8 6 -17 13 -19 7 -3 5 -6 -5 -6 -12 -1 -18 6 -18 22 0 15 -6
24 -16 24 -10 0 -14 -7 -11 -19 3 -11 0 -18 -9 -18 -19 0 -18 -19 3 -42 13
-14 13 -18 2 -19 -8 -1 -1 -4 15 -8 16 -3 40 -21 54 -39 l25 -32 -49 6 c-27 4
-68 6 -91 5 -32 -1 -47 4 -62 21 -26 27 -22 31 18 17 18 -6 33 -10 35 -8 9 11
15 69 6 64 -5 -3 -3 7 5 22 8 15 15 33 15 40 0 6 6 13 13 16 6 2 10 7 7 10 -7
8 -35 9 -132 8 -80 -1 -88 -3 -88 -20 0 -11 4 -22 10 -26 5 -3 7 -12 3 -20 -3
-10 1 -15 13 -15 14 0 15 -3 6 -12 -7 -7 -12 -25 -12 -41 0 -24 7 -31 54 -53
29 -13 87 -28 127 -34 41 -5 88 -16 104 -24 l30 -16 7 48 c5 43 6 41 5 -18 -2
-57 0 -65 17 -68 27 -6 50 26 33 46 -11 13 -9 14 11 1 12 -8 22 -23 21 -34 0
-11 -3 -14 -6 -7 -2 6 -9 10 -14 6 -14 -8 -11 -24 6 -24 11 0 15 -12 15 -45 0
-39 4 -47 25 -57 14 -6 21 -14 15 -18 -6 -4 -6 -17 0 -40 6 -19 10 -47 10 -62
0 -25 -4 -28 -31 -28 -48 0 -29 -24 22 -28 55 -4 149 7 149 17 0 4 -21 7 -47
5 -27 -1 -38 0 -25 2 12 3 22 13 23 22 0 11 3 12 6 5 3 -8 20 -13 41 -12 21 1
29 3 20 6 -10 2 -18 10 -18 17 0 8 25 4 83 -16 45 -15 92 -28 104 -28 16 0 20
-5 16 -19 -7 -28 -59 -31 -529 -31 l-421 0 -6 128 c-7 143 -19 191 -58 233
-27 29 -27 29 -149 29 -129 0 -162 -9 -189 -53 -20 -31 -14 -135 14 -231 14
-47 25 -88 25 -91 0 -3 -20 -5 -45 -5 -43 0 -44 1 -34 24 8 17 8 29 0 44 -6
11 -8 29 -5 39 5 15 4 16 -5 3 -8 -11 -9 -7 -5 20 7 37 -9 33 -20 -5 -3 -11
-4 -1 -3 21 2 29 -1 40 -10 37 -6 -3 -9 -11 -7 -18 3 -7 1 -16 -5 -20 -6 -3
-11 1 -11 9 0 23 -30 33 -83 28 -44 -4 -48 -6 -42 -26 11 -33 26 -139 21 -144
-3 -2 -45 -7 -93 -9 -104 -6 -143 5 -143 41 0 15 -7 25 -20 29 -17 4 -20 0
-20 -29 0 -24 -5 -34 -15 -34 -13 0 -15 46 -13 363 0 199 3 347 5 330 4 -33
23 -47 23 -18 0 34 20 12 21 -22 1 -21 3 -30 6 -20 3 10 11 30 19 45 l14 27 0
-25 c1 -23 2 -23 11 -6 6 10 11 48 12 85 0 49 2 58 7 36 l8 -30 1 28 c0 15 6
27 12 27 5 0 7 -4 4 -10 -3 -5 3 -10 14 -10 19 0 26 15 22 43 0 4 3 7 9 7 6 0
10 -7 10 -16 0 -8 5 -12 11 -9 6 4 8 13 5 21 -3 8 0 11 10 7 8 -3 21 0 29 7 8
7 15 9 15 6 0 -4 10 -2 23 5 16 8 13 3 -10 -19 -18 -17 -33 -34 -33 -38 0 -5
5 -3 12 4 8 8 47 12 108 12 l96 0 -2 -30 c-1 -17 5 -34 15 -42 14 -11 14 -11
3 4 -7 9 -9 19 -4 22 8 5 32 -56 32 -83 0 -8 -38 -11 -125 -11 -69 0 -125 -4
-125 -8 0 -4 14 -16 31 -26 29 -17 30 -19 13 -37 -17 -19 -14 -20 240 -14 241
6 306 13 306 32 -1 5 -9 18 -19 31 -14 16 -30 22 -59 22 -59 0 -102 11 -102
26 0 7 12 15 28 17 l27 4 -27 2 c-26 1 -41 21 -17 21 8 0 8 4 0 14 -10 12 -16
11 -36 -9 -15 -13 -25 -34 -25 -49 0 -16 -5 -26 -15 -26 -12 0 -14 8 -9 40 5
33 4 40 -10 40 -10 0 -14 5 -11 10 4 6 11 8 16 5 5 -4 9 -1 9 4 0 6 3 10 8 10
17 -3 35 1 29 7 -19 19 28 33 129 38 60 3 202 10 315 16 113 6 210 10 215 9
15 -4 109 12 123 20 7 5 11 19 9 32 -3 22 -9 25 -73 30 -71 6 -90 -1 -80 -29
3 -7 0 -10 -5 -7 -14 9 -12 42 3 47 6 3 33 4 60 2 41 -2 47 0 47 17 0 18 -9
19 -175 19 -146 0 -175 -2 -175 -15 0 -7 -8 -19 -17 -25 -13 -8 -14 -13 -5
-16 21 -9 14 -34 -10 -33 -18 0 -20 2 -6 7 15 6 14 10 -8 35 l-23 28 -7 -28
c-10 -45 -12 -50 -13 -21 -1 14 -4 35 -7 45 -4 13 -3 14 4 5 7 -11 10 -11 15
2 5 13 -1 16 -28 16 -35 0 -46 -12 -23 -26 7 -4 8 -3 4 4 -4 7 -2 12 3 12 6 0
11 -6 11 -14 0 -8 3 -23 6 -33 6 -17 6 -17 -8 1 -8 10 -20 16 -26 12 -19 -11
-14 -26 11 -36 22 -10 22 -10 -3 -7 -22 2 -25 7 -26 40 -1 20 -5 41 -9 45 -4
4 -6 -3 -3 -14 5 -21 3 -22 -71 -17 -72 4 -115 -6 -98 -24 5 -4 12 -1 16 6 6
9 9 4 9 -14 0 -19 -3 -23 -9 -14 -8 12 -11 11 -19 -1 -7 -11 -10 -7 -10 19 l0
33 -45 -6 c-27 -4 -45 -3 -45 2 0 6 51 14 113 20 l112 10 -113 -2 c-89 -1
-116 -4 -123 -16 -7 -13 -8 -13 -9 0 0 13 -2 13 -9 1 -5 -8 -17 -16 -26 -17
-23 -3 -32 -14 -18 -22 7 -5 7 -11 -3 -20 -12 -11 -14 -9 -14 12 0 13 -2 30
-3 38 -2 7 -2 10 0 6 3 -5 11 -8 19 -8 9 0 13 4 10 9 -4 5 0 12 6 14 7 3 -1 6
-19 6 -22 1 -33 -4 -36 -16 -4 -17 -5 -17 -6 0 0 9 -5 17 -10 17 -5 0 -12 -8
-14 -17 -4 -17 -5 -17 -6 0 -1 14 -10 17 -50 17 -39 0 -51 -4 -54 -17 -4 -17
-5 -17 -6 0 -1 15 -16 17 -163 16 -90 0 -157 -3 -150 -6 6 -2 10 -9 6 -14 -3
-5 0 -9 5 -9 6 0 11 -5 11 -10 0 -6 -11 -3 -25 6 -18 11 -37 15 -63 11 -36 -6
-36 -6 -12 8 22 13 4 14 -167 15 l-193 0 0 -935z m1640 913 c0 -9 3 -8 10 2 8
13 10 12 10 -2 0 -10 -4 -18 -9 -18 -4 0 -8 -10 -7 -22 1 -24 -19 -47 -41 -48
-8 0 -13 13 -13 31 l0 31 20 -23 19 -24 1 28 c0 19 -5 27 -17 28 -10 0 -26 2
-35 4 -14 2 -18 -4 -19 -28 -2 -31 -2 -31 -6 -4 -4 25 -8 27 -49 27 -64 0 -54
18 13 22 31 2 72 4 90 6 22 2 33 -2 33 -10z m120 2 c0 -5 -5 -10 -11 -10 -5 0
-7 5 -4 10 3 6 8 10 11 10 2 0 4 -4 4 -10z m-1507 -61 c-6 -6 -7 3 -4 23 4 28
6 29 9 9 2 -13 0 -27 -5 -32z m224 4 c-3 -10 -5 -2 -5 17 0 19 2 27 5 18 2
-10 2 -26 0 -35z m136 18 c-6 -37 -13 -39 -14 -5 l-1 29 -8 -30 -8 -30 -1 32
c-1 25 3 31 18 30 15 -1 18 -7 14 -26z m-99 4 c-4 -8 -11 -15 -16 -15 -6 0 -5
6 2 15 7 8 14 15 16 15 2 0 1 -7 -2 -15z m548 -10 c3 -14 1 -25 -3 -25 -5 0
-9 11 -9 25 0 14 2 25 4 25 2 0 6 -11 8 -25z m1301 10 c-3 -9 -8 -14 -10 -11
-3 3 -2 9 2 15 9 16 15 13 8 -4z m-2071 -25 c6 0 7 8 3 18 -5 13 -3 14 6 5 13
-13 4 -33 -17 -33 -8 0 -14 9 -13 23 1 16 2 18 6 5 2 -10 9 -18 15 -18z m65 5
c1 -16 1 -16 -3 -2 -3 9 -9 17 -14 17 -5 0 -11 -8 -13 -17 -3 -13 -5 -12 -6 5
-1 30 33 27 36 -3z m43 5 c0 -11 -7 -20 -15 -20 -8 0 -15 5 -15 11 0 5 5 7 10
4 6 -3 10 1 10 9 0 9 2 16 5 16 3 0 5 -9 5 -20z m37 -2 c1 -11 -5 -18 -15 -18
-15 0 -15 2 -2 10 10 6 11 10 3 10 -7 0 -13 4 -13 8 0 17 26 8 27 -10z m129
-6 c-4 -6 -20 -10 -37 -10 -17 1 -25 4 -18 8 6 4 20 5 32 2 17 -4 19 -2 13 14
-5 14 -4 16 5 7 6 -6 8 -16 5 -21z m124 15 c0 -19 38 -18 43 1 3 12 5 10 6 -5
1 -19 -4 -23 -29 -23 -22 0 -30 5 -31 18 0 14 -2 14 -9 -3 -7 -17 -9 -17 -9
-2 -1 9 -5 17 -10 17 -5 0 -12 -8 -14 -17 -4 -14 -5 -12 -6 5 -1 18 4 22 29
22 18 0 30 -5 30 -13z m99 -9 c-1 -17 -2 -19 -6 -5 -2 9 -8 17 -13 17 -5 0
-11 -8 -13 -17 -4 -14 -5 -12 -6 5 -1 16 5 22 19 22 14 0 20 -6 19 -22z m50 0
c-1 -17 -2 -19 -6 -5 -2 9 -8 17 -13 17 -5 0 -11 -8 -13 -17 -4 -14 -5 -12 -6
5 -1 16 5 22 19 22 14 0 20 -6 19 -22z m128 -10 c-3 -7 -5 -2 -5 12 0 14 2 19
5 13 2 -7 2 -19 0 -25z m26 12 c-3 -11 -7 -20 -9 -20 -2 0 -4 9 -4 20 0 11 4
20 9 20 5 0 7 -9 4 -20z m44 -2 c1 -11 -5 -18 -15 -18 -15 0 -15 2 -2 10 10 6
11 10 3 10 -7 0 -13 4 -13 8 0 17 26 8 27 -10z m169 11 c4 -8 9 -7 16 2 6 10
7 6 3 -11 -4 -14 -12 -29 -18 -35 -7 -7 -8 -6 -3 2 4 7 2 21 -3 30 -10 17 -10
17 -11 1 0 -11 -8 -18 -20 -18 -11 0 -20 4 -20 10 0 5 7 7 15 4 11 -5 13 -2 9
10 -7 18 21 23 32 5z m54 -21 c0 -19 -16 -5 -17 14 -2 18 0 20 7 8 5 -8 10
-18 10 -22z m210 2 c5 0 11 8 13 18 4 13 5 11 6 -5 1 -17 -5 -23 -19 -23 -14
0 -20 6 -19 23 1 16 2 18 6 5 2 -10 8 -18 13 -18z m67 5 c1 -16 1 -16 -3 -2
-3 9 -9 17 -14 17 -5 0 -11 -8 -13 -17 -3 -13 -5 -12 -6 5 -1 30 33 27 36 -3z
m40 -7 c-3 -7 -5 -2 -5 12 0 14 2 19 5 13 2 -7 2 -19 0 -25z m90 0 c-3 -7 -5
-2 -5 12 0 14 2 19 5 13 2 -7 2 -19 0 -25z m-657 -162 c0 -3 -4 -8 -10 -11 -5
-3 -10 -1 -10 4 0 6 5 11 10 11 6 0 10 -2 10 -4z m620 -177 c0 -7 -18 -9 -57
-4 -78 9 -80 15 -5 15 38 0 62 -4 62 -11z m1003 -29 c-3 -12 -8 -19 -11 -16
-5 6 5 36 12 36 2 0 2 -9 -1 -20z m37 -80 c0 -5 -5 -10 -11 -10 -5 0 -7 5 -4
10 3 6 8 10 11 10 2 0 4 -4 4 -10z m21 -58 c-7 -2 -18 1 -23 6 -8 8 -4 9 13 5
13 -4 18 -8 10 -11z m-785 -7 c-3 -20 -16 -31 -16 -13 0 13 8 28 16 28 1 0 1
-7 0 -15z m-1526 -45 c0 -5 -4 -10 -9 -10 -6 0 -13 5 -16 10 -3 6 1 10 9 10 9
0 16 -4 16 -10z m853 -12 c-13 -6 -23 -15 -23 -20 0 -5 -5 -6 -12 -2 -7 5 -9
2 -5 -9 3 -8 0 -18 -7 -20 -9 -4 -12 2 -9 17 3 13 16 27 31 33 36 14 53 15 25
1z m66 -58 c0 -9 -5 -6 -11 8 -6 12 -15 22 -20 22 -4 0 -8 8 -8 18 0 14 4 12
20 -8 11 -14 19 -32 19 -40z m-929 40 c13 -8 13 -10 -2 -10 -9 0 -20 5 -23 10
-8 13 5 13 25 0z m-13 -132 c-3 -7 -5 -2 -5 12 0 14 2 19 5 13 2 -7 2 -19 0
-25z m2729 -30 c-7 -46 -16 -46 -16 1 0 27 4 40 10 36 6 -4 9 -20 6 -37z
m-1066 -23 c12 -13 20 -30 17 -37 -4 -8 -6 -6 -6 5 -2 33 -36 16 -36 -18 -1
-40 -29 -41 -32 -1 -1 16 -4 35 -7 42 -3 7 -1 16 5 19 5 4 7 10 4 15 -11 17
34 -3 55 -25z m-1199 -14 c6 -14 5 -20 -1 -16 -6 3 -10 1 -10 -5 0 -6 -5 -8
-11 -4 -8 5 -8 9 1 14 9 5 9 9 1 14 -15 9 -14 29 1 24 6 -2 15 -14 19 -27z
m2383 -34 c-5 -27 -14 -37 -34 -37 -19 0 -36 32 -25 49 3 6 19 9 34 8 22 -1
28 -6 25 -20z m251 -57 c0 -30 -35 -39 -55 -14 -12 14 -12 18 5 30 28 21 50
13 50 -16z m-1840 -270 c31 -15 34 -18 12 -13 -15 3 -70 -2 -121 -12 -52 -9
-109 -15 -127 -13 -31 3 -26 6 46 30 95 32 136 34 190 8z m1845 -30 c51 -26
121 -109 120 -142 -1 -7 -8 1 -17 17 -76 145 -257 180 -372 72 -118 -112 -85
-310 64 -378 52 -24 138 -24 190 0 44 20 94 69 118 116 9 17 16 24 17 17 0
-17 -42 -82 -71 -109 -37 -34 -99 -56 -159 -56 -210 -1 -323 249 -182 405 20
22 48 46 63 54 72 37 162 38 229 4z m-2119 -111 c32 -63 55 -96 59 -89 5 9 19
10 41 5 19 -4 75 -10 124 -14 50 -4 80 -8 68 -9 -40 -3 -106 -34 -92 -43 8 -4
10 -11 6 -15 -10 -11 -107 -12 -107 -2 0 4 7 8 15 8 19 0 65 21 65 30 0 11
-59 34 -67 26 -3 -3 -1 -6 5 -6 7 0 12 -9 12 -19 0 -25 -31 -32 -48 -11 -7 8
-5 -2 4 -22 10 -20 22 -34 27 -31 13 8 5 -7 -47 -84 -22 -35 -44 -63 -48 -63
-8 0 -198 362 -198 377 0 9 97 61 117 62 7 1 35 -44 64 -100z m-363 64 c-16
-2 -40 -2 -55 0 -16 2 -3 4 27 4 30 0 43 -2 28 -4z m78 -25 l19 -23 -25 20
c-14 11 -27 21 -29 22 -2 2 0 3 6 3 5 0 18 -10 29 -22z m-261 -58 c-3 -5 -13
-10 -21 -10 -8 0 -14 -5 -14 -11 0 -5 5 -7 10 -4 6 3 10 1 10 -5 0 -15 -22 -8
-28 8 -2 7 7 16 20 21 30 13 30 13 23 1z m595 -40 c6 -11 8 -20 6 -20 -3 0
-10 9 -16 20 -6 11 -8 20 -6 20 3 0 10 -9 16 -20z m2201 -82 c-8 -29 -9 -25
-9 32 0 57 1 61 9 33 6 -21 6 -45 0 -65z m-242 69 c-2 -1 -13 -9 -24 -17 -19
-14 -19 -14 -6 3 7 9 18 17 24 17 6 0 8 -1 6 -3z m-69 -68 c0 -5 9 -18 19 -28
13 -13 17 -27 14 -41 -5 -18 -11 -21 -34 -16 -32 6 -46 -8 -29 -29 7 -8 8 -15
3 -15 -5 0 -16 9 -25 19 -13 16 -14 22 -4 30 7 6 16 8 19 4 4 -3 7 1 7 11 0 9
-4 14 -10 11 -5 -3 -10 -1 -10 5 0 7 9 14 20 17 11 3 20 10 20 15 0 6 -9 8
-20 5 -11 -3 -25 2 -32 11 -7 9 -8 13 -3 10 6 -4 17 -3 25 2 15 9 40 3 40 -11z
m-1707 -14 c-3 -9 -8 -14 -10 -11 -3 3 -2 9 2 15 9 16 15 13 8 -4z m50 -12
c-7 -2 -19 -2 -25 0 -7 3 -2 5 12 5 14 0 19 -2 13 -5z m-967 -183 c0 -11 -4
-20 -8 -20 -10 0 -11 24 -1 33 9 9 9 10 9 -13z m77 -11 c-8 -8 -13 -7 -18 2
-6 8 -4 10 5 4 10 -6 12 -4 6 11 -6 15 -5 17 5 7 9 -10 10 -16 2 -24z m302 11
c-18 -20 -36 -18 -34 3 0 9 2 9 6 0 3 -10 8 -9 20 2 22 22 29 18 8 -5z m61 0
c0 -12 -4 -16 -9 -11 -5 5 -6 14 -3 20 10 15 12 14 12 -9z m-693 3 c-7 -2 -19
-2 -25 0 -7 3 -2 5 12 5 14 0 19 -2 13 -5z m197 -14 c0 -5 -4 -9 -8 -9 -5 0
-9 7 -9 15 0 8 4 12 9 9 4 -3 8 -9 8 -15z m90 11 c0 -5 -2 -10 -4 -10 -3 0 -8
5 -11 10 -3 6 -1 10 4 10 6 0 11 -4 11 -10z m75 0 c3 -5 1 -10 -4 -10 -6 0
-11 5 -11 10 0 6 2 10 4 10 3 0 8 -4 11 -10z m55 0 c0 -5 -4 -10 -10 -10 -5 0
-10 5 -10 10 0 6 5 10 10 10 6 0 10 -4 10 -10z m30 6 c0 -3 -4 -8 -10 -11 -5
-3 -10 -1 -10 4 0 6 5 11 10 11 6 0 10 -2 10 -4z m30 0 c0 -3 -4 -8 -10 -11
-5 -3 -10 -1 -10 4 0 6 5 11 10 11 6 0 10 -2 10 -4z m24 -11 c3 -8 1 -15 -4
-15 -6 0 -10 7 -10 15 0 8 2 15 4 15 2 0 6 -7 10 -15z m30 0 c3 -8 1 -15 -4
-15 -6 0 -10 7 -10 15 0 8 2 15 4 15 2 0 6 -7 10 -15z m56 3 c0 -4 -7 -8 -15
-8 -8 0 -15 4 -15 8 0 5 7 9 15 9 8 0 15 -4 15 -9z m80 3 c0 -5 -7 -12 -16
-15 -14 -5 -15 -4 -4 9 14 17 20 19 20 6z m-660 -41 c0 -5 -5 -10 -11 -10 -5
0 -7 5 -4 10 3 6 8 10 11 10 2 0 4 -4 4 -10z m240 -10 c0 -5 -7 -10 -15 -10
-8 0 -15 5 -15 10 0 6 7 10 15 10 8 0 15 -4 15 -10z m130 0 c0 -5 -4 -10 -10
-10 -5 0 -10 5 -10 10 0 6 5 10 10 10 6 0 10 -4 10 -10z m70 0 c0 -5 -7 -10
-15 -10 -8 0 -15 5 -15 10 0 6 7 10 15 10 8 0 15 -4 15 -10z m40 0 c0 -5 -4
-10 -9 -10 -6 0 -13 5 -16 10 -3 6 1 10 9 10 9 0 16 -4 16 -10z m70 6 c0 -3
-4 -8 -10 -11 -5 -3 -10 -1 -10 4 0 6 5 11 10 11 6 0 10 -2 10 -4z m30 -6 c0
-5 -2 -10 -4 -10 -3 0 -8 5 -11 10 -3 6 -1 10 4 10 6 0 11 -4 11 -10z m50 0
c0 -5 -2 -10 -4 -10 -3 0 -8 5 -11 10 -3 6 -1 10 4 10 6 0 11 -4 11 -10z"/>
<path d="M11958 1543 c7 -3 16 -2 19 1 4 3 -2 6 -13 5 -11 0 -14 -3 -6 -6z"/>
<path d="M11817 3011 c3 -13 11 -17 24 -14 28 8 24 33 -5 33 -19 0 -23 -4 -19
-19z"/>
<path d="M12638 3023 c7 -3 16 -2 19 1 4 3 -2 6 -13 5 -11 0 -14 -3 -6 -6z"/>
<path d="M3596 2884 c-9 -8 -16 -31 -16 -49 0 -18 7 -41 16 -49 18 -19 55 -21
72 -4 20 20 13 32 -8 13 -17 -15 -24 -16 -45 -7 -19 9 -25 19 -25 45 0 54 35
74 72 40 20 -18 25 -4 6 15 -17 17 -54 15 -72 -4z"/>
<path d="M4426 2878 c-44 -63 26 -145 79 -92 9 9 14 19 11 21 -3 3 -13 -2 -22
-11 -22 -22 -45 -17 -63 15 -13 24 -13 29 2 53 20 30 51 34 66 9 5 -10 12 -15
16 -12 11 11 -25 39 -50 39 -13 0 -31 -10 -39 -22z"/>
<path d="M3716 2854 c-30 -30 -11 -84 29 -84 29 0 49 32 39 63 -12 39 -42 48
-68 21z m54 -14 c8 -14 8 -26 0 -40 -23 -42 -72 -9 -52 35 14 30 37 32 52 5z"/>
<path d="M3812 2815 c1 -42 2 -44 5 -13 4 39 28 67 43 52 5 -5 10 -27 13 -49
l4 -40 1 42 c1 23 7 45 12 48 18 11 39 -15 43 -53 l4 -37 1 42 c2 51 -7 58
-75 58 l-53 0 2 -50z"/>
<path d="M3962 2805 c0 -38 3 -60 5 -47 3 17 9 21 22 17 32 -10 51 5 51 40 0
41 -24 64 -50 47 -14 -9 -20 -8 -23 1 -3 7 -5 -19 -5 -58z m52 49 c21 -8 21
-63 1 -70 -33 -13 -59 38 -33 64 14 14 12 14 32 6z"/>
<path d="M4083 2863 c-7 -2 -13 -9 -13 -15 0 -6 6 -6 15 2 16 13 45 7 45 -9 0
-5 -14 -12 -31 -16 -24 -5 -29 -11 -27 -28 2 -17 10 -22 36 -23 30 -1 32 1 32
36 0 49 -20 68 -57 53z m45 -60 c-4 -23 -48 -31 -48 -10 0 9 6 18 13 20 25 11
38 7 35 -10z"/>
<path d="M4172 2815 c1 -42 2 -44 5 -13 4 39 28 67 43 52 5 -5 11 -27 13 -49
3 -33 4 -31 3 10 -1 49 -1 50 -33 50 l-33 1 2 -51z"/>
<path d="M4260 2865 c0 -3 7 -22 15 -42 18 -43 19 -70 3 -76 -9 -4 -8 -6 3 -6
10 -1 23 20 37 61 12 33 20 63 18 65 -2 2 -9 -12 -16 -31 -14 -44 -26 -46 -35
-6 -6 25 -25 53 -25 35z"/>
<path d="M3463 2833 c9 -2 23 -2 30 0 6 3 -1 5 -18 5 -16 0 -22 -2 -12 -5z"/>
<path d="M11138 2813 c12 -2 32 -2 45 0 12 2 2 4 -23 4 -25 0 -35 -2 -22 -4z"/>
<path d="M11248 2813 c7 -3 16 -2 19 1 4 3 -2 6 -13 5 -11 0 -14 -3 -6 -6z"/>
<path d="M12143 2769 c-5 -5 -20 -11 -32 -12 -21 -1 -29 -21 -12 -31 5 -3 7
-15 4 -26 -3 -11 -1 -20 5 -20 6 0 8 -10 6 -22 -4 -21 -3 -21 6 2 7 16 8 26 1
28 -5 2 -7 10 -4 18 3 7 9 11 14 8 5 -3 10 5 10 18 1 16 3 18 6 6 2 -9 0 -33
-5 -52 -6 -20 -7 -35 -4 -35 19 3 32 -2 32 -12 0 -5 -4 -7 -10 -4 -5 3 -10 1
-10 -5 0 -7 6 -10 13 -7 6 2 11 14 10 26 -2 12 1 20 5 17 4 -2 9 5 9 17 2 15
0 18 -6 9 -6 -11 -10 -10 -15 3 -3 9 -6 26 -6 38 0 18 2 19 11 7 9 -13 10 -13
6 0 -2 8 -10 14 -16 13 -15 -4 -14 14 2 20 6 3 7 6 2 6 -6 1 -16 -4 -22 -10z
m-13 -27 c0 -5 -7 -9 -15 -9 -8 0 -12 4 -9 9 3 4 9 8 15 8 5 0 9 -4 9 -8z m34
-57 c3 -8 1 -15 -4 -15 -6 0 -10 7 -10 15 0 8 2 15 4 15 2 0 6 -7 10 -15z"/>
<path d="M12071 2739 c0 -13 4 -33 9 -44 7 -14 8 -8 3 20 -7 46 -13 59 -12 24z"/>
<path d="M12328 2723 c7 -3 16 -2 19 1 4 3 -2 6 -13 5 -11 0 -14 -3 -6 -6z"/>
<path d="M12213 2693 c9 -2 25 -2 35 0 9 3 1 5 -18 5 -19 0 -27 -2 -17 -5z"/>
<path d="M12330 2694 c45 -17 74 -24 64 -14 -5 5 -25 12 -44 15 -19 3 -28 3
-20 -1z"/>
<path d="M5862 2647 c-23 -24 -40 -46 -37 -49 5 -4 95 79 95 88 0 13 -21 -2
-58 -39z"/>
<path d="M11896 2665 c-4 -13 8 -15 77 -15 45 0 92 -3 105 -6 16 -5 22 -2 22
9 0 10 -6 13 -20 10 -11 -3 -20 0 -20 6 0 7 -27 11 -79 11 -61 0 -80 -3 -85
-15z"/>
<path d="M12233 2663 c9 -2 23 -2 30 0 6 3 -1 5 -18 5 -16 0 -22 -2 -12 -5z"/>
<path d="M5887 2622 c-23 -25 -10 -35 14 -11 10 10 19 21 19 24 0 11 -18 4
-33 -13z"/>
<path d="M12606 2623 c-6 -14 -5 -15 5 -6 7 7 10 15 7 18 -3 3 -9 -2 -12 -12z"/>
<path d="M10870 2595 c0 -9 6 -12 15 -9 8 4 15 10 15 15 0 5 -7 9 -15 9 -8 0
-15 -7 -15 -15z"/>
<path d="M11037 2595 c3 -10 0 -21 -7 -25 -11 -7 -11 -14 -2 -35 13 -28 26
-26 43 8 9 19 8 19 -11 -3 l-21 -25 6 41 c4 26 2 45 -4 48 -7 5 -8 1 -4 -9z"/>
<path d="M10981 2580 c0 -14 8 -38 19 -55 11 -16 20 -25 20 -19 0 5 -4 14 -9
20 -5 5 -14 25 -19 44 -9 29 -10 31 -11 10z"/>
<path d="M12592 2570 c0 -19 2 -27 5 -17 2 9 2 25 0 35 -3 9 -5 1 -5 -18z"/>
<path d="M12617 2574 c7 -3 9 -13 6 -22 -4 -14 -3 -14 5 -2 12 16 7 30 -11 29
-9 0 -9 -2 0 -5z"/>
<path d="M12602 2505 c0 -16 2 -22 5 -12 2 9 2 23 0 30 -3 6 -5 -1 -5 -18z"/>
<path d="M12626 2513 c-6 -14 -5 -15 5 -6 7 7 10 15 7 18 -3 3 -9 -2 -12 -12z"/>
<path d="M11747 2473 c-11 -10 -8 -20 8 -27 10 -4 15 1 15 14 0 20 -11 26 -23
13z"/>
<path d="M11010 2460 c0 -5 7 -10 16 -10 8 0 12 5 9 10 -3 6 -10 10 -16 10 -5
0 -9 -4 -9 -10z"/>
<path d="M11228 2399 c-25 -14 -22 -28 5 -25 32 4 49 15 41 28 -4 7 -10 5 -16
-6 -5 -9 -14 -16 -20 -16 -7 0 -6 5 2 15 14 17 12 18 -12 4z"/>
<path d="M11153 2364 c-3 -7 -9 -12 -13 -9 -4 2 -16 -5 -26 -17 l-19 -21 30
16 c26 13 31 13 41 0 9 -14 11 -14 11 1 0 9 -4 16 -9 16 -5 0 -7 4 -3 10 3 5
12 7 20 3 8 -3 15 -1 15 4 0 15 -41 13 -47 -3z"/>
<path d="M11960 2370 c0 -5 7 -7 15 -4 8 4 15 8 15 10 0 2 -7 4 -15 4 -8 0
-15 -4 -15 -10z"/>
<path d="M12015 2369 c-11 -17 1 -21 15 -4 8 9 8 15 2 15 -6 0 -14 -5 -17 -11z"/>
<path d="M11205 2350 c-18 -8 -17 -9 7 -9 15 -1 30 4 33 9 7 12 -12 12 -40 0z"/>
<path d="M11275 2330 c3 -5 14 -10 23 -10 15 0 15 2 2 10 -20 13 -33 13 -25 0z"/>
<path d="M11195 2321 c-3 -5 -2 -12 3 -15 5 -3 9 1 9 9 0 17 -3 19 -12 6z"/>
<path d="M11220 2318 c0 -18 11 -31 40 -47 l25 -14 -24 26 c-12 14 -20 30 -16
36 3 6 -1 11 -9 11 -9 0 -16 -6 -16 -12z"/>
<path d="M11100 2287 c-20 -25 -21 -30 -7 -24 10 4 25 7 33 7 8 0 14 4 14 10
0 5 -7 6 -17 3 -11 -4 -14 -3 -9 5 4 7 18 12 32 12 14 0 22 4 19 10 -12 19
-40 9 -65 -23z"/>
<path d="M11165 2277 c-17 -13 -17 -14 4 -20 11 -3 21 -4 21 -2 0 2 3 10 6 19
7 20 -6 21 -31 3z"/>
<path d="M11110 2235 c-10 -12 -7 -13 22 -5 44 13 48 12 18 -6 -24 -15 -24
-15 15 -9 22 4 45 11 50 17 7 7 3 9 -12 5 -13 -3 -26 -1 -29 4 -8 14 -50 11
-64 -6z"/>
<path d="M11248 2243 c6 -2 18 -2 25 0 6 3 1 5 -13 5 -14 0 -19 -2 -12 -5z"/>
<path d="M12191 2134 c0 -11 3 -14 6 -6 3 7 2 16 -1 19 -3 4 -6 -2 -5 -13z"/>
<path d="M11845 2120 c-4 -6 -4 -14 -1 -17 3 -4 6 0 6 8 0 11 2 11 8 1 13 -19
52 -24 52 -6 0 8 -4 13 -9 10 -5 -4 -12 0 -14 6 -4 10 -6 9 -6 -1 -1 -10 -4
-11 -15 -2 -10 9 -16 9 -21 1z"/>
<path d="M12180 2081 c0 -6 -12 -16 -26 -21 -15 -6 -22 -14 -18 -22 4 -6 3 -8
-4 -4 -6 3 -13 2 -17 -4 -4 -6 14 -10 49 -10 l54 0 -15 33 c-20 39 -23 44 -23
28z"/>
<path d="M11823 2073 c15 -2 37 -2 50 0 12 2 0 4 -28 4 -27 0 -38 -2 -22 -4z"/>
<path d="M11813 2043 c15 -2 39 -2 55 0 15 2 2 4 -28 4 -30 0 -43 -2 -27 -4z"/>
<path d="M12265 2030 c-2 -3 12 -7 31 -8 19 -2 34 -1 34 2 0 7 -61 13 -65 6z"/>
<path d="M7655 675 c-25 -24 -25 -25 -25 -225 0 -200 0 -201 25 -225 l24 -25
1926 0 1926 0 24 25 c25 24 25 25 25 225 0 200 0 201 -25 225 l-24 25 -1926 0
-1926 0 -24 -25z m1140 -145 c-4 -6 7 -13 24 -16 17 -4 28 -10 26 -15 -3 -4
-1 -10 5 -14 13 -8 13 -51 0 -75 -14 -27 -62 -41 -91 -26 -34 16 -53 60 -39
86 6 11 9 24 6 29 -3 5 8 11 25 15 17 3 28 10 24 16 -3 5 1 10 10 10 9 0 13
-5 10 -10z m-747 -59 c4 -75 -13 -93 -87 -89 l-56 3 -3 59 c-4 86 -3 87 75 84
l68 -3 3 -54z m1636 33 c10 -27 7 -99 -6 -112 -12 -12 -124 -17 -152 -6 -12 5
-16 20 -16 63 0 32 3 61 7 64 3 4 41 7 84 7 61 0 78 -3 83 -16z m1614 -32 c3
-36 0 -43 -20 -51 -13 -5 -30 -16 -37 -25 -13 -15 -15 -15 -27 3 -8 11 -24 21
-37 23 -24 3 -33 33 -23 74 6 24 10 25 74 22 l67 -3 3 -43z m-820 29 c9 -5 12
-24 10 -52 l-3 -44 -70 0 -70 0 -3 38 c-2 21 2 45 9 53 13 15 105 20 127 5z"/>
<path d="M8752 494 c-26 -18 -30 -65 -6 -88 23 -24 70 -20 88 6 23 32 20 54
-10 77 -32 25 -43 26 -72 5z m51 -40 c-10 -15 -19 -22 -21 -15 -2 7 4 19 14
26 26 20 27 19 7 -11z"/>
<path d="M7920 450 l0 -60 40 0 c33 0 40 3 40 20 0 13 7 20 20 20 17 0 20 7
20 40 l0 40 -60 0 -60 0 0 -60z"/>
<path d="M9530 455 l0 -55 71 0 70 0 -3 53 -3 52 -67 3 -68 3 0 -56z m30 31
c0 -3 -4 -8 -10 -11 -5 -3 -10 -1 -10 4 0 6 5 11 10 11 6 0 10 -2 10 -4z m90
-6 c0 -5 -15 -10 -34 -10 -19 0 -38 5 -41 10 -4 6 10 10 34 10 23 0 41 -4 41
-10z m-90 -24 c0 -3 -4 -8 -10 -11 -5 -3 -10 -1 -10 4 0 6 5 11 10 11 6 0 10
-2 10 -4z m90 -6 c0 -5 -15 -10 -34 -10 -19 0 -38 5 -41 10 -4 6 10 10 34 10
23 0 41 -4 41 -10z m-90 -24 c0 -3 -4 -8 -10 -11 -5 -3 -10 -1 -10 4 0 6 5 11
10 11 6 0 10 -2 10 -4z m73 -3 c-13 -2 -33 -2 -45 0 -13 2 -3 4 22 4 25 0 35
-2 23 -4z"/>
<path d="M11164 496 c-10 -27 0 -61 21 -64 11 -2 25 -10 31 -18 10 -12 13 -12
24 1 7 8 21 15 32 15 16 0 19 6 16 38 l-3 37 -58 3 c-43 2 -59 -1 -63 -12z
m96 -16 c0 -5 -13 -10 -29 -10 -17 0 -33 5 -36 10 -4 6 8 10 29 10 20 0 36 -4
36 -10z m-37 -27 c-7 -2 -19 -2 -25 0 -7 3 -2 5 12 5 14 0 19 -2 13 -5z"/>
<path d="M10388 493 c-30 -5 -43 -31 -33 -63 6 -18 14 -21 63 -18 l57 3 3 38
c3 31 0 37 -17 37 -10 0 -25 2 -33 3 -7 2 -25 2 -40 0z m41 -32 c11 -7 9 -11
-8 -20 -18 -10 -21 -9 -21 9 0 22 7 25 29 11z"/>
<path d="M18135 675 c-25 -24 -25 -25 -25 -225 0 -200 0 -201 25 -225 l24 -25
396 0 396 0 24 25 c25 24 25 25 25 225 0 200 0 201 -25 225 l-24 25 -396 0
-396 0 -24 -25z m307 -170 c0 -5 -5 -11 -11 -13 -6 -2 -11 4 -11 13 0 9 5 15
11 13 6 -2 11 -8 11 -13z m150 0 c0 -5 -5 -11 -11 -13 -6 -2 -11 4 -11 13 0 9
5 15 11 13 6 -2 11 -8 11 -13z m-182 -5 c0 -5 -16 -10 -35 -10 -24 0 -35 -5
-35 -15 0 -10 10 -15 30 -15 38 0 40 -18 3 -22 -23 -2 -28 -8 -28 -30 1 -16
-5 -28 -12 -28 -9 0 -13 19 -13 65 l0 65 45 0 c25 0 45 -4 45 -10z m320 -8 c0
-13 8 -18 28 -17 25 0 27 -3 30 -47 4 -56 -15 -66 -20 -10 -2 25 -8 37 -18 37
-10 0 -16 -12 -18 -37 -5 -63 -22 -42 -22 27 0 37 4 65 10 65 6 0 10 -8 10
-18z m-286 -65 c1 -32 -3 -47 -11 -47 -9 0 -13 17 -13 51 0 65 22 62 24 -4z
m104 1 c4 -56 -15 -66 -20 -11 -2 27 -8 39 -20 41 -15 3 -18 -4 -18 -37 0 -30
-4 -41 -15 -41 -11 0 -15 12 -15 51 l0 50 43 -3 42 -3 3 -47z m42 2 c0 -27 -4
-50 -10 -50 -5 0 -10 23 -10 50 0 28 5 50 10 50 6 0 10 -22 10 -50z m84 44
c28 -11 17 -24 -14 -17 -39 7 -39 -5 1 -19 23 -8 29 -16 27 -32 -2 -17 -10
-21 -37 -21 -19 0 -36 6 -38 12 -3 9 4 11 26 7 40 -8 40 4 1 17 -28 10 -40 36
-23 52 8 9 36 9 57 1z"/>
<path d="M220 502 c0 -5 14 -7 30 -4 17 2 30 6 30 8 0 2 -13 4 -30 4 -16 0
-30 -4 -30 -8z"/>
<path d="M672 493 c-4 -10 -5 -36 -1 -58 l6 -40 2 38 c0 22 6 37 14 37 8 0 7
4 -3 10 -13 9 -13 11 0 20 9 6 11 10 3 10 -7 0 -16 -8 -21 -17z"/>
<path d="M1119 486 c-14 -29 -4 -75 16 -83 23 -8 45 16 45 51 0 55 -41 76 -61
32z m46 -31 c0 -45 -28 -63 -40 -25 -10 33 3 72 23 68 13 -2 17 -13 17 -43z"/>
<path d="M1249 493 c-13 -15 -12 -15 8 -2 18 10 25 11 35 1 9 -9 5 -20 -21
-52 l-32 -40 38 1 c36 1 36 2 9 8 -27 5 -28 7 -12 20 29 24 39 50 25 67 -15
19 -33 18 -50 -3z"/>
<path d="M1347 504 c-4 -4 -7 -12 -7 -18 0 -6 5 -5 12 2 7 7 18 12 25 12 19 0
16 -29 -4 -37 -14 -5 -13 -8 6 -15 13 -4 21 -14 19 -20 -6 -18 -39 -22 -50 -6
-8 10 -9 10 -5 -2 2 -8 13 -16 24 -18 24 -4 48 22 37 40 -4 7 -8 24 -8 38 -1
17 -7 26 -21 28 -12 2 -24 0 -28 -4z"/>
<path d="M302 468 c-6 -6 -12 -19 -11 -27 0 -10 4 -7 9 7 6 13 18 22 30 22 17
0 21 -5 18 -27 -2 -22 -8 -28 -26 -27 -14 0 -19 -3 -13 -9 5 -5 17 -7 27 -5
28 5 27 72 -1 76 -11 1 -26 -3 -33 -10z"/>
<path d="M420 465 c-7 -8 -16 -12 -21 -9 -5 3 -9 -3 -9 -12 0 -10 3 -14 7 -11
3 4 18 -3 32 -15 l26 -23 -22 25 c-21 24 -22 27 -6 43 10 9 15 17 11 17 -3 0
-11 -7 -18 -15z"/>
<path d="M520 450 c0 -34 -26 -52 -42 -29 -8 12 -9 11 -5 -1 2 -8 16 -15 30
-16 25 -1 27 2 27 37 0 22 -2 39 -5 39 -3 0 -5 -14 -5 -30z"/>
<path d="M555 470 c-8 -13 3 -30 18 -29 9 0 9 2 0 6 -23 9 -13 25 12 21 13 -3
22 -1 19 3 -7 12 -41 11 -49 -1z"/>
<path d="M633 440 c0 -25 2 -35 4 -22 2 12 2 32 0 45 -2 12 -4 2 -4 -23z"/>
<path d="M771 473 c-1 -6 -4 -20 -7 -30 -5 -17 -5 -17 6 0 6 10 9 23 6 30 -3
9 -5 9 -5 0z"/>
<path d="M846 467 c3 -10 9 -15 12 -12 3 3 0 11 -7 18 -10 9 -11 8 -5 -6z"/>
<path d="M896 465 c-9 -26 -7 -32 5 -12 6 10 9 21 6 23 -2 3 -7 -2 -11 -11z"/>
<path d="M934 466 c-16 -41 20 -86 48 -58 6 6 0 8 -16 5 -19 -4 -26 -1 -26 11
0 11 9 16 26 16 19 0 25 5 22 18 -4 22 -46 29 -54 8z m46 -6 c0 -5 -9 -10 -20
-10 -11 0 -20 5 -20 10 0 6 9 10 20 10 11 0 20 -4 20 -10z"/>
<path d="M1020 463 c0 -10 4 -14 8 -8 4 6 11 13 16 18 5 4 2 7 -7 7 -10 0 -17
-8 -17 -17z"/>
<path d="M220 451 c0 -4 11 -6 25 -3 14 2 25 6 25 8 0 2 -11 4 -25 4 -14 0
-25 -4 -25 -9z"/>
<path d="M736 421 c5 -23 3 -36 -7 -42 -9 -6 -10 -9 -2 -9 7 0 17 9 23 20 8
16 7 26 -5 43 -15 21 -15 21 -9 -12z"/>
<path d="M596 426 c6 -16 4 -18 -19 -14 -15 3 -24 1 -21 -3 7 -13 42 -11 50 2
3 6 1 16 -5 22 -9 9 -10 7 -5 -7z"/>
<path d="M867 422 c1 -8 3 -16 3 -18 0 -3 5 -2 10 1 6 3 10 11 10 16 0 6 -4 8
-9 5 -5 -4 -11 -3 -14 1 -2 5 -2 2 0 -5z"/>
<path d="M0 10 c0 -7 3207 -10 9600 -10 6393 0 9600 3 9600 10 0 7 -3207 10
-9600 10 -6393 0 -9600 -3 -9600 -10z"/>
</g>
</svg>
