<?xml version="1.0" standalone="no"?>
<!DOCTYPE svg PUBLIC "-//W3C//DTD SVG 20010904//EN"
 "http://www.w3.org/TR/2001/REC-SVG-20010904/DTD/svg10.dtd">
<svg version="1.0" xmlns="http://www.w3.org/2000/svg"
 width="1024.000000pt" height="1024.000000pt" viewBox="0 0 1024.000000 1024.000000"
 preserveAspectRatio="xMidYMid meet">

<g transform="translate(0.000000,1024.000000) scale(0.100000,-0.100000)"
fill="#000000" stroke="none">
<path d="M4815 8539 c-490 -47 -969 -238 -1394 -556 -152 -114 -402 -364 -514
-514 -280 -375 -445 -762 -528 -1234 -21 -114 -23 -164 -24 -405 0 -174 5
-310 13 -370 82 -591 379 -1173 813 -1595 219 -212 432 -363 704 -495 193 -94
320 -142 498 -190 744 -197 1551 -64 2191 361 252 166 475 367 648 583 317
395 537 930 589 1435 15 145 6 499 -16 641 -92 596 -370 1139 -797 1556 -143
140 -250 228 -403 330 -385 256 -820 413 -1255 453 -132 13 -394 12 -525 0z
m595 -446 c16 -9 33 -27 39 -40 7 -16 11 -131 11 -329 0 -335 -2 -349 -60
-379 -24 -12 -79 -15 -315 -15 -317 0 -324 1 -351 67 -21 50 -20 612 1 653 29
57 42 59 358 60 252 0 293 -2 317 -17z m701 -323 c64 -12 166 -60 196 -92 l22
-23 -67 -1 c-159 -2 -281 -117 -282 -265 0 -70 19 -118 71 -174 58 -63 122
-87 220 -83 44 2 79 0 79 -3 0 -4 -25 -30 -56 -58 -156 -143 -437 -113 -565
62 -74 100 -100 202 -80 312 30 162 144 282 306 321 64 16 90 16 156 4z
m-2078 -84 c14 -21 14 -26 2 -36 -8 -7 -15 -19 -15 -28 0 -10 -7 -7 -26 11
-24 25 -25 27 -9 51 21 32 29 32 48 2z m195 -156 c35 -22 68 -69 77 -112 6
-23 9 -26 25 -18 10 6 35 10 55 10 47 0 82 -35 91 -89 6 -40 7 -41 48 -41 60
0 101 -43 101 -107 0 -37 -5 -49 -28 -69 l-28 -24 -509 0 -510 0 -31 28 c-86
77 -18 232 96 218 l40 -5 1 42 c2 88 52 137 140 137 41 0 51 -5 86 -39 32 -33
45 -39 73 -38 30 2 38 9 58 47 14 28 36 52 58 62 46 24 116 23 157 -2z m2547
-232 c15 -31 35 -51 73 -73 28 -16 51 -32 52 -35 0 -3 -18 -14 -40 -24 -50
-24 -74 -51 -90 -98 -14 -45 -25 -48 -35 -10 -11 45 -51 88 -100 108 -25 11
-45 22 -45 26 0 3 15 11 33 17 41 14 90 60 107 101 7 17 15 30 19 30 3 0 15
-19 26 -42z m-1588 -259 c63 -30 23 35 492 -805 110 -199 201 -368 201 -376 0
-14 -38 -75 -78 -127 l-19 -23 -51 85 c-60 101 -335 589 -474 842 -54 99 -108
188 -119 198 -35 29 -87 22 -121 -15 -17 -18 -93 -148 -170 -288 -241 -440
-431 -784 -443 -802 -10 -15 -18 -8 -65 58 -52 76 -52 77 -37 108 47 98 590
1066 612 1094 66 79 171 98 272 51z m1324 -100 l21 -21 -22 -23 c-21 -23 -22
-23 -41 -4 -23 23 -23 28 -2 51 20 22 19 22 44 -3z m-2803 -11 c16 -16 15 -33
-4 -52 -19 -20 -54 -5 -54 22 0 20 18 42 35 42 6 0 16 -5 23 -12z m672 -13
c26 -32 -13 -81 -47 -59 -35 22 -23 74 17 74 10 0 23 -7 30 -15z m-935 -44
c56 -26 102 -78 130 -147 28 -69 35 -70 145 -23 103 43 173 38 233 -19 39 -37
55 -69 63 -130 6 -48 8 -51 27 -41 11 7 39 9 64 5 147 -20 195 -213 74 -293
l-35 -23 -712 2 -712 3 -27 25 c-44 41 -58 77 -53 136 8 96 76 154 181 154
l55 0 6 44 c10 66 58 116 117 123 31 4 56 0 76 -11 l31 -15 6 42 c11 75 72
146 148 174 51 18 137 15 183 -6z m3463 3 c73 -30 141 -120 142 -186 0 -32 7
-34 34 -13 27 20 91 19 127 -2 29 -17 64 -76 74 -125 5 -26 9 -28 56 -28 63 0
108 -19 142 -59 51 -61 57 -144 15 -204 -42 -59 -12 -57 -787 -57 l-711 0 -39
35 c-68 62 -74 154 -14 225 39 47 78 63 139 57 l52 -5 4 53 c6 66 43 119 102
146 58 26 107 23 186 -11 37 -16 82 -31 100 -32 32 -3 34 -1 49 46 20 64 89
140 144 159 56 20 139 21 185 1z m-2834 -53 c10 -16 -5 -41 -24 -41 -20 0 -30
17 -22 38 5 14 38 16 46 3z m1131 -598 c164 -290 232 -409 310 -548 156 -277
519 -890 1007 -1702 11 -18 17 -33 15 -33 -6 0 -310 326 -458 490 -139 154
-312 360 -503 598 -98 122 -179 222 -180 222 -1 0 0 -59 2 -132 l4 -132 -151
189 c-84 105 -156 192 -162 194 -7 2 -10 -160 -9 -515 1 -286 1 -528 1 -538
-1 -13 -26 16 -68 77 -62 91 -83 113 -83 86 0 -6 -14 -41 -31 -77 -17 -37 -60
-130 -94 -207 -35 -77 -102 -219 -150 -315 -80 -163 -85 -172 -81 -125 3 28
10 124 16 215 6 91 12 177 14 193 6 61 -1 50 -282 -432 -81 -140 -152 -256
-158 -258 -5 -1 -16 2 -24 7 -15 10 -18 -9 40 320 11 63 19 121 18 129 -2 7
-61 -66 -132 -163 -71 -97 -131 -176 -134 -176 -12 0 -352 218 -352 225 0 2
31 56 69 121 38 66 122 211 187 324 115 200 282 490 529 915 67 116 166 289
220 385 54 96 113 200 130 230 32 53 226 402 314 563 23 42 46 77 50 77 4 0
61 -93 126 -207z m-1783 -222 c15 -29 37 -51 66 -66 45 -24 44 -29 -14 -58
-20 -11 -40 -33 -54 -64 l-23 -48 -10 30 c-13 41 -45 74 -91 95 l-39 18 41 21
c44 23 79 61 88 98 8 28 8 28 36 -26z m3538 -82 l26 -32 -29 -28 c-33 -33 -37
-35 -37 -14 0 9 -11 21 -25 27 -30 13 -32 24 -6 33 11 3 23 15 26 26 8 26 14
24 45 -12z m-2841 -264 c100 -132 181 -242 181 -245 0 -10 -339 -350 -460
-462 -69 -63 -208 -191 -309 -284 -102 -93 -232 -213 -290 -266 -59 -54 -108
-97 -111 -97 -3 0 -15 13 -27 28 l-22 28 53 94 c29 52 130 238 223 414 290
545 537 1009 547 1032 9 17 14 20 23 10 7 -7 93 -120 192 -252z m2498 -420
c184 -346 402 -750 450 -833 24 -40 24 -44 9 -67 -22 -33 -24 -32 -176 112
-69 65 -256 233 -415 374 -267 235 -615 562 -615 578 0 3 21 34 48 68 26 34
90 117 142 185 51 68 118 154 148 191 l54 69 85 -164 c47 -89 169 -320 270
-513z m-3499 376 c133 -118 242 -220 242 -228 0 -23 -427 -833 -439 -833 -10
0 -155 301 -185 382 -61 165 -134 469 -151 624 l-7 61 104 90 c167 147 161
142 179 129 8 -6 124 -107 257 -225z m4415 70 l59 -55 -7 -60 c-21 -187 -90
-479 -151 -634 -40 -101 -176 -382 -186 -382 -4 0 -8 4 -8 8 0 4 -42 86 -93
182 -51 96 -148 281 -215 411 l-122 236 28 25 c29 27 437 368 486 405 l28 23
61 -53 c34 -28 87 -76 120 -106z"/>
<path d="M5260 7986 c-28 -29 -58 -63 -66 -75 -13 -17 -25 -21 -73 -21 -65 0
-81 -11 -81 -55 0 -47 15 -55 102 -55 l79 0 80 83 c87 91 99 115 75 152 -26
40 -57 32 -116 -29z"/>
<path d="M4820 7840 l0 -60 64 0 64 0 7 40 c12 70 3 80 -71 80 l-64 0 0 -60z"/>
<path d="M4847 7633 c-27 -4 -28 -6 -25 -56 l3 -52 65 0 65 0 3 51 c3 46 1 52
-20 58 -24 6 -44 6 -91 -1z"/>
<path d="M5043 7604 c-15 -24 -15 -29 -2 -53 15 -26 16 -26 148 -29 114 -2
137 0 152 14 23 21 24 42 3 72 -14 21 -22 22 -149 22 -134 0 -135 0 -152 -26z"/>
<path d="M4044 2649 c-17 -5 -39 -18 -50 -30 -18 -20 -19 -42 -19 -476 l0
-455 33 -29 c46 -42 93 -40 138 5 31 31 34 39 34 93 0 59 0 59 45 91 l45 32
111 -98 c141 -124 183 -152 226 -152 63 0 102 33 103 88 0 49 -11 64 -113 146
-50 41 -109 89 -130 108 l-37 33 134 105 c74 58 140 115 146 127 18 30 0 73
-40 101 -66 45 -89 34 -311 -144 -92 -74 -169 -134 -173 -134 -3 0 -6 118 -6
263 0 291 -1 296 -66 323 -18 8 -35 14 -36 13 -2 0 -17 -5 -34 -10z"/>
<path d="M6441 2629 c-98 -30 -166 -119 -178 -234 -5 -52 -8 -56 -27 -50 -12
4 -44 9 -72 12 -47 5 -54 2 -85 -25 l-34 -30 0 -312 0 -312 28 -24 c40 -34 90
-32 128 5 l29 29 0 200 c0 200 5 262 21 262 5 0 9 -85 9 -190 0 -230 9 -284
53 -311 47 -28 90 -25 129 10 l33 29 3 225 4 225 34 6 c23 5 41 17 57 42 l24
34 53 -107 c106 -216 180 -378 180 -395 0 -9 -28 -72 -61 -140 -74 -148 -82
-191 -45 -235 33 -39 73 -49 118 -30 57 24 44 -2 322 613 76 168 136 314 136
330 0 60 -65 111 -126 99 -49 -9 -77 -50 -151 -224 -36 -84 -69 -149 -73 -144
-4 4 -40 79 -80 166 -44 94 -84 166 -99 178 -49 39 -98 37 -149 -6 l-29 -24
-23 24 c-13 14 -38 28 -57 31 -22 4 -33 12 -33 24 0 23 16 34 72 50 49 13 81
40 92 77 9 29 -17 88 -47 108 -31 20 -112 27 -156 14z"/>
<path d="M6064 2596 c-38 -38 -43 -69 -19 -121 47 -97 195 -59 195 50 0 37 -5
47 -35 74 -50 44 -95 43 -141 -3z"/>
<path d="M2771 2602 c-19 -9 -44 -30 -55 -45 -20 -28 -21 -39 -21 -449 l0
-420 33 -29 c37 -33 79 -38 122 -12 44 25 50 52 50 208 l0 145 103 0 c114 0
161 15 186 61 21 39 7 93 -32 121 -28 20 -47 23 -145 27 l-113 3 3 97 3 96
178 5 179 5 29 33 c47 53 33 119 -33 153 -33 17 -60 19 -245 19 -178 0 -213
-3 -242 -18z"/>
<path d="M5680 2360 c-67 -11 -113 -34 -154 -74 -98 -99 -87 -237 27 -313 25
-17 89 -45 141 -63 106 -35 125 -49 101 -74 -24 -23 -98 -20 -179 9 -79 28
-117 24 -146 -13 -39 -49 -16 -116 54 -157 63 -37 100 -46 196 -46 139 -1 234
49 284 148 18 37 21 118 5 160 -22 59 -92 114 -184 143 -96 30 -145 52 -145
65 0 29 85 34 165 9 84 -27 145 2 145 70 0 66 -68 117 -181 136 -70 11 -65 11
-129 0z"/>
<path d="M3473 2346 c-88 -28 -169 -100 -220 -198 -25 -47 -28 -63 -28 -148 0
-85 3 -101 29 -152 37 -73 115 -151 185 -186 48 -23 69 -27 141 -27 76 0 93 4
152 33 83 41 159 122 189 202 71 188 -40 420 -229 476 -56 17 -163 17 -219 0z
m185 -216 c52 -32 74 -75 69 -142 -4 -71 -40 -122 -96 -139 -110 -33 -218 64
-197 175 7 39 57 103 90 116 38 15 100 11 134 -10z"/>
<path d="M4798 2345 c-15 -8 -32 -24 -38 -35 -6 -11 -10 -107 -10 -238 0 -257
7 -287 79 -361 83 -86 208 -106 316 -52 l58 30 19 -24 c38 -49 127 -44 159 8
18 30 19 54 19 325 l0 294 -29 28 c-38 39 -75 47 -118 26 -55 -26 -63 -59 -63
-258 0 -190 -4 -204 -60 -233 -16 -8 -48 -15 -71 -15 -33 0 -47 6 -75 34 l-34
34 0 191 0 191 -27 30 c-34 37 -85 47 -125 25z"/>
</g>
</svg>
